<svg xmlns="http://www.w3.org/2000/svg" viewBox="0 0 169.49 161"><defs><style>.cls-1{fill:#fff}</style></defs><g id="Layer_2" data-name="Layer 2"><g id="コンテンツ"><path class="cls-1" d="M162.28 0H43.89a7.21 7.21 0 0 0-7.2 7.2v32.66l-5.41-8.12A8.38 8.38 0 0 0 20 29.2L8.84 35.89a16.33 16.33 0 0 0-7.47 9.68c-4.06 14.8-1 40.29 36.36 77.7C67.49 153 89.67 161 105 161a39.07 39.07 0 0 0 10.48-1.37 16.39 16.39 0 0 0 9.69-7.45l6.64-11.18a8.37 8.37 0 0 0-2.54-11.29L102.6 112a8.42 8.42 0 0 0-11.27 1.83l-7.76 10a2.7 2.7 0 0 1-3.46.73l-1.48-.81c-4.86-2.65-10.91-6-23.13-18.17-1.33-1.33-2.52-2.56-3.65-3.75h110.43a7.2 7.2 0 0 0 7.21-7.17V7.2a7.22 7.22 0 0 0-7.21-7.2zM75.93 128.65l1.43.79a8.33 8.33 0 0 0 10.64-2.2l7.76-10a2.76 2.76 0 0 1 3.68-.6l26.67 17.78a2.72 2.72 0 0 1 .82 3.67l-6.68 11.15a10.75 10.75 0 0 1-6.33 4.92c-13.36 3.67-36.74.56-72.21-34.92S3.17 60.41 6.83 47.07a10.71 10.71 0 0 1 4.91-6.33l11.15-6.69a2.74 2.74 0 0 1 3.68.82l17.78 26.67a2.75 2.75 0 0 1-.59 3.68L33.77 73a8.34 8.34 0 0 0-2.2 10.67l.79 1.43c2.83 5.18 6.34 11.63 19.14 24.43s19.25 16.3 24.43 19.12zm87.9-34.05a1.55 1.55 0 0 1-1.55 1.53H46.75a71.47 71.47 0 0 1-9.43-13.75l-.81-1.48a2.69 2.69 0 0 1 .73-3.45l10-7.77a8.42 8.42 0 0 0 1.82-11.27l-6.72-10.07V7.2a1.54 1.54 0 0 1 1.55-1.55h118.39a1.56 1.56 0 0 1 1.1.45 1.48 1.48 0 0 1 .45 1.1z"/><path class="cls-1" d="M156.51 13.62a2.83 2.83 0 0 0-4-.54l-47.18 35.81a3.78 3.78 0 0 1-4.48 0L53.64 13.08a2.83 2.83 0 1 0-3.41 4.51L97.44 53.4a9.51 9.51 0 0 0 11.3 0L156 17.59a2.85 2.85 0 0 0 .55-4zM79 53.63l-29 31a2.82 2.82 0 0 0 4.13 3.85l29-31A2.83 2.83 0 0 0 79 53.63zm48.39 0a2.83 2.83 0 1 0-4.14 3.86l28.94 31a2.82 2.82 0 1 0 4.13-3.85z"/></g></g></svg>