<svg xmlns="http://www.w3.org/2000/svg" viewBox="0 0 130.53 172.81"><defs><style>.cls-1{fill:#fff}</style></defs><g id="Layer_2" data-name="Layer 2"><g id="コンテンツ"><path class="cls-1" d="M13.44 43.41a2.53 2.53 0 0 0-2.53 2.53v113.43a2.53 2.53 0 0 0 2.53 2.53h103.65a2.53 2.53 0 0 0 2.53-2.53V13.44a2.53 2.53 0 0 0-2.53-2.53H13.44a2.53 2.53 0 0 0-2.53 2.53v20.69a2.53 2.53 0 1 0 5.06 0V16h98.59v140.83H16V45.94a2.53 2.53 0 0 0-2.53-2.53z"/><path class="cls-1" d="M128 137.71a2.53 2.53 0 0 0 2.53-2.53V12.76A12.77 12.77 0 0 0 117.77 0h-105A12.77 12.77 0 0 0 0 12.76v147.29a12.78 12.78 0 0 0 12.76 12.76h105a12.78 12.78 0 0 0 12.76-12.76V147a2.53 2.53 0 0 0-5.06 0v13.06a7.71 7.71 0 0 1-7.7 7.7h-105a7.72 7.72 0 0 1-7.7-7.7V12.76a7.72 7.72 0 0 1 7.7-7.7h105a7.71 7.71 0 0 1 7.7 7.7v122.42a2.53 2.53 0 0 0 2.53 2.53z"/><path class="cls-1" d="M85.93 40.56a2.53 2.53 0 0 0 3.58 0l3-3 3 3A2.53 2.53 0 0 0 99.15 37l-3-3 3-3a2.53 2.53 0 0 0-3.58-3.58l-3 3-3-3A2.53 2.53 0 1 0 85.99 31l3 3-3 3a2.53 2.53 0 0 0 0 3.58zm3.2 24.22H41.4a6 6 0 0 0-5.94 5.94v11.46a9.35 9.35 0 0 0 0 18v11.45a6 6 0 0 0 5.94 6h47.73a.87.87 0 0 1 .88.87v9.42a9.35 9.35 0 1 0 5.06 0v-9.42a6 6 0 0 0-5.94-5.94H41.4a.88.88 0 0 1-.88-.88v-11.5a9.35 9.35 0 0 0 0-18V70.72a.89.89 0 0 1 .88-.88h47.73a5.94 5.94 0 0 0 5.94-5.94v-9.57l2.16 2.16a2.53 2.53 0 1 0 3.58-3.58l-6.48-6.48a2.54 2.54 0 0 0-3.58 0l-6.48 6.48a2.53 2.53 0 0 0 3.58 3.58L90 54.33v9.57a.87.87 0 0 1-.88.88zm7.7 72.08a4.29 4.29 0 1 1-4.29-4.28 4.3 4.3 0 0 1 4.29 4.28zM42.28 91.18A4.29 4.29 0 1 1 38 86.89a4.29 4.29 0 0 1 4.29 4.29z"/><path class="cls-1" d="M92.54 81.83a9.35 9.35 0 1 0 9.35 9.35 9.35 9.35 0 0 0-9.35-9.35zm0 13.63a4.29 4.29 0 1 1 4.29-4.28 4.29 4.29 0 0 1-4.29 4.28zm-63.9 41.4a9.35 9.35 0 1 0 9.36-9.35 9.35 9.35 0 0 0-9.35 9.35zm13.64 0a4.29 4.29 0 1 1-4.28-4.28 4.3 4.3 0 0 1 4.29 4.28zM24.35 31.66h34.1a2.54 2.54 0 0 0 0-5.07h-34.1a2.54 2.54 0 0 0 0 5.07zm0 10.91h34.1a2.54 2.54 0 0 0 0-5.07h-34.1a2.54 2.54 0 0 0 0 5.07zm0 10.91h20.41a2.54 2.54 0 0 0 0-5.07H24.35a2.54 2.54 0 0 0 0 5.07z"/></g></g></svg>