<svg xmlns="http://www.w3.org/2000/svg" viewBox="0 0 170.28 177.3"><defs><style>.cls-1{fill:#fff}</style></defs><g id="Layer_2" data-name="Layer 2"><g id="コンテンツ"><path class="cls-1" d="M28.38 86.27h36.89a2.84 2.84 0 1 0 0-5.67H28.38a2.84 2.84 0 1 0 0 5.67zm73.79 11.37H28.38a2.83 2.83 0 1 0 0 5.66h73.79a2.83 2.83 0 1 0 0-5.66zm0 17.01H28.38a2.84 2.84 0 0 0 0 5.68h73.79a2.84 2.84 0 1 0 0-5.68z"/><path class="cls-1" d="M153.46.2L56.57 0a16.85 16.85 0 0 0-16.84 16.82v35.55l-22.91.05A16.85 16.85 0 0 0 0 69.25v60a16.85 16.85 0 0 0 16.82 16.84h17.24v28.38a2.85 2.85 0 0 0 1.82 2.65 3 3 0 0 0 1 .19 2.88 2.88 0 0 0 2.11-.93l27.53-30.3 47.19-.2a16.84 16.84 0 0 0 16.83-16.82V98.73l14.93 16.42a2.87 2.87 0 0 0 2.11.93 3.05 3.05 0 0 0 1-.19 2.83 2.83 0 0 0 1.81-2.65V84.86h3.05A16.84 16.84 0 0 0 170.28 68V17A16.85 16.85 0 0 0 153.46.2zm-28.59 128.85a11.17 11.17 0 0 1-11.15 11.16l-48.45.19a2.83 2.83 0 0 0-2.09.93l-23.45 25.79v-23.88a2.83 2.83 0 0 0-2.84-2.84H16.82a11.17 11.17 0 0 1-11.14-11.16v-60A11.17 11.17 0 0 1 16.84 58.1l25.73-.1 71.15-.15a11.16 11.16 0 0 1 11.15 11.16zM164.6 68a11.16 11.16 0 0 1-11.14 11.16h-5.87a2.83 2.83 0 0 0-2.84 2.84v23.9l-14.2-15.61V69.05a16.86 16.86 0 0 0-16.83-16.83l-68.31.14V16.82A11.16 11.16 0 0 1 56.55 5.67l96.9.2A11.18 11.18 0 0 1 164.62 17v51z"/><path class="cls-1" d="M68.38 26.27h36.89a2.84 2.84 0 1 0 0-5.67H68.38a2.84 2.84 0 1 0 0 5.67zm73.79 11.37H68.38a2.83 2.83 0 1 0 0 5.66h73.79a2.83 2.83 0 1 0 0-5.66z"/></g></g></svg>