<svg xmlns="http://www.w3.org/2000/svg" viewBox="0 0 158.42 183.27"><defs><style>.cls-1{fill:#fff}</style></defs><g id="Layer_2" data-name="Layer 2"><g id="コンテンツ"><path class="cls-1" d="M100.11 81.67l-7.55-6A2.77 2.77 0 1 0 89.12 80l.29.23a17.33 17.33 0 0 1-7-28.79 2.77 2.77 0 0 0-3.91-3.91 22.85 22.85 0 0 0 12.4 38.7l-1.73 1.37a2.77 2.77 0 1 0 3.38 4.4l7.56-6a2.77 2.77 0 0 0 0-4.34z"/><path class="cls-1" d="M94.61 26.48a37.32 37.32 0 1 0 37.32 37.32 37.3 37.3 0 0 0-37.32-37.32zm0 69.1a31.78 31.78 0 1 1 31.78-31.78 31.78 31.78 0 0 1-31.78 31.78z"/><path class="cls-1" d="M155.64 52.69h-11a50.48 50.48 0 0 0-6.8-16.42l7.76-7.76a2.76 2.76 0 0 0 0-3.91l-11.78-11.81a2.76 2.76 0 0 0-3.91 0l-7.76 7.76a50.59 50.59 0 0 0-16.42-6.81v-11A2.77 2.77 0 0 0 103 0H86.27a2.77 2.77 0 0 0-2.77 2.77v11a50.35 50.35 0 0 0-16.42 6.8l-7.75-7.77a2.78 2.78 0 0 0-3.92 0l-11.8 11.79a2.75 2.75 0 0 0 0 3.91l7.75 7.77a50.42 50.42 0 0 0-6.8 16.41h-11a2.77 2.77 0 0 0-2.77 2.77v16.69a2.76 2.76 0 0 0 2.77 2.77h11a50.48 50.48 0 0 0 6.8 16.42L43.6 99.1a2.76 2.76 0 0 0 0 3.91l11.8 11.81a2.78 2.78 0 0 0 3.92 0l7.76-7.77a50.5 50.5 0 0 0 16.42 6.81v11a2.77 2.77 0 0 0 2.76 2.77H103a2.77 2.77 0 0 0 2.77-2.77v-11a50.59 50.59 0 0 0 16.42-6.81l7.76 7.77a2.78 2.78 0 0 0 3.91 0L145.63 103a2.78 2.78 0 0 0 0-3.92l-7.76-7.76a50.42 50.42 0 0 0 6.8-16.41h11a2.77 2.77 0 0 0 2.77-2.77V55.46a2.76 2.76 0 0 0-2.78-2.77zm-2.76 16.69h-10.49a2.77 2.77 0 0 0-2.73 2.3A45.14 45.14 0 0 1 132 90.09a2.78 2.78 0 0 0 .31 3.55l7.42 7.41-7.89 7.89-7.42-7.41a2.78 2.78 0 0 0-3.55-.31 45.16 45.16 0 0 1-18.41 7.63 2.77 2.77 0 0 0-2.3 2.73v10.48H89v-10.48a2.77 2.77 0 0 0-2.3-2.73 45.16 45.16 0 0 1-18.41-7.63 2.78 2.78 0 0 0-3.55.31l-7.42 7.41-7.89-7.89 7.42-7.41a2.76 2.76 0 0 0 .3-3.55 45.26 45.26 0 0 1-7.62-18.41 2.78 2.78 0 0 0-2.73-2.3H36.35V58.22h10.49a2.78 2.78 0 0 0 2.73-2.3 45.26 45.26 0 0 1 7.62-18.41 2.76 2.76 0 0 0-.3-3.55l-7.42-7.41 7.89-7.89 7.42 7.41a2.75 2.75 0 0 0 3.55.31 45.16 45.16 0 0 1 18.41-7.63A2.77 2.77 0 0 0 89 16V5.54h11.15V16a2.77 2.77 0 0 0 2.3 2.73 45.16 45.16 0 0 1 18.41 7.63 2.75 2.75 0 0 0 3.55-.31l7.42-7.41 7.89 7.89-7.38 7.47a2.78 2.78 0 0 0-.31 3.55 45.14 45.14 0 0 1 7.63 18.41 2.77 2.77 0 0 0 2.73 2.3h10.49z"/><path class="cls-1" d="M98.38 41.27l1.73-1.37a2.77 2.77 0 1 0-3.44-4.34l-7.55 6a2.77 2.77 0 0 0 0 4.34l7.55 6a2.77 2.77 0 1 0 3.43-4.34l-.28-.23a17.33 17.33 0 0 1 7.05 28.79c-2.62 2.61 1.31 6.53 3.92 3.91a22.84 22.84 0 0 0-12.41-38.7zm37.76 122.89h-31v-2.39c0-3.59-4.66-6.2-6.1-6.91a1.77 1.77 0 0 0-.38-.15l-23.37-7c-1.48-1.31-6.77-5.89-13.24-10.55-10.32-7.43-18.32-11.2-23.78-11.2H19.11v-2.39a2.39 2.39 0 0 0-2.39-2.38H2.39A2.39 2.39 0 0 0 0 123.55v52.55a2.39 2.39 0 0 0 2.39 2.39h14.33a2.39 2.39 0 0 0 2.39-2.39v-2.39h7.05c1.49.2 13.68 2.61 24.45 4.73 21.56 4.26 24.6 4.83 25.27 4.83h60.26a7.18 7.18 0 0 0 7.17-7.17v-4.78a7.17 7.17 0 0 0-7.17-7.16zm-121.81 9.55H4.78v-47.77h9.55zm124.2 2.39a2.39 2.39 0 0 1-2.39 2.39H76c-1.49-.2-13.68-2.61-24.45-4.73-21.55-4.26-24.6-4.83-25.27-4.83h-7.17v-38.21h19.11c9 0 27.77 15.07 34.22 20.88a2.39 2.39 0 0 0 .92.51L97 159.22c1.49.78 3.06 2 3.28 2.62v4.71a2.39 2.39 0 0 1-2.19 2.38l-23.23-4.65-16.38-9.36a2.39 2.39 0 0 0-3.26.89 2.34 2.34 0 0 0-.23 1.81 2.39 2.39 0 0 0 1.12 1.45l16.72 9.55a2.27 2.27 0 0 0 .71.27l23.89 4.78a2.42 2.42 0 0 0 .47 0 7.16 7.16 0 0 0 6.75-4.78h31.46a2.4 2.4 0 0 1 2.39 2.39z"/></g></g></svg>