<svg xmlns="http://www.w3.org/2000/svg" viewBox="0 0 167.09 172.85"><defs><style>.cls-1{fill:#fff}</style></defs><g id="Layer_2" data-name="Layer 2"><g id="コンテンツ"><path class="cls-1" d="M74.9 25.93h77.78v5.76H74.9zm0 11.52h48.98v5.76H74.9zm0 11.53h48.98v5.76H74.9zM97.95 14.4h54.74v5.76H97.95zm-11.52 0h5.76v5.76h-5.76zm-5.76 100.84h5.76V121h-5.76zM41.18 30.85l4.07-4.08-3.72-3.72 3.72-3.73-4.07-4.07L35.42 21a2.87 2.87 0 0 0 0 4.07zm21.36 0l5.76-5.77a2.89 2.89 0 0 0 0-4.07l-5.76-5.76-4.08 4.07 3.73 3.73-3.73 3.72z"/><path class="cls-1" transform="rotate(-71.55 51.852 23.047)" d="M42.74 20.17h18.22v5.76H42.74z"/><path class="cls-1" d="M146.93 66.26h-5.77v23.05h-5.76V60.5h-5.76v28.81h-5.76V74.9h-5.76v14.41h-5.76V72.02h-5.77v17.29h-5.76V77.78h-5.76v11.53h-5.76v5.76h63.38v-5.76h-5.76V66.26z"/><path class="cls-1" d="M0 106.59v8.65a17.3 17.3 0 0 0 17.29 17.28H53l-11.53 23H25.93a8.64 8.64 0 0 0 0 17.28h115.23a8.64 8.64 0 1 0 0-17.28h-15.5l-11.52-23h35.67a17.3 17.3 0 0 0 17.28-17.28V17.29A17.3 17.3 0 0 0 149.81 0H17.29A17.3 17.3 0 0 0 0 17.29v89.3zm58.19-31.93l2.73 8.39a2.87 2.87 0 0 0 1.66 1.78L72 88.66v6.8l-9.45 3.83a2.86 2.86 0 0 0-1.65 1.78l-.87 2.64H43.46a27.13 27.13 0 0 0-37.7-35.37V40.53l6.55 7.8a2.9 2.9 0 0 0 2.21 1h8.82a2.88 2.88 0 0 0 2.2-1l6.55-7.8 6.47 2.1.71 10.15a2.88 2.88 0 0 0 1.18 2.13l7.14 5.19a2.86 2.86 0 0 0 2.39.46l9.89-2.45 4 5.49-5.39 8.65a2.88 2.88 0 0 0-.29 2.41zM5.76 103.71V75.19a21.4 21.4 0 0 1 31.12 28.52zm138.29 60.5a2.88 2.88 0 0 1-2.89 2.88H25.93a2.88 2.88 0 0 1 0-5.76h115.23a2.88 2.88 0 0 1 2.89 2.88zm-24.83-8.64H47.87l11.53-23h48.29zm30.59-28.81H17.29a11.53 11.53 0 0 1-11.53-11.52v-5.77h155.57v5.77a11.52 11.52 0 0 1-11.52 11.52zM17.29 5.76h132.52a11.53 11.53 0 0 1 11.52 11.53v86.42H67l9-3.64a2.89 2.89 0 0 0 1.79-2.67V86.72A2.9 2.9 0 0 0 76 84l-10-4-1.89-5.83L69.79 65a2.89 2.89 0 0 0-.12-3.22l-6.28-8.64a2.87 2.87 0 0 0-3-1.1l-10.5 2.59-5-3.59-.76-10.75a2.87 2.87 0 0 0-2-2.54L32 34.45a2.9 2.9 0 0 0-3.09.89L22 43.59h-6.13l-6.94-8.25a2.89 2.89 0 0 0-3.1-.89h-.07V17.29A11.53 11.53 0 0 1 17.29 5.76z"/></g></g></svg>