<svg xmlns="http://www.w3.org/2000/svg" viewBox="0 0 45.87 45.84"><path d="M45.85 36.18a2.24 2.24 0 0 1-.68 1.94l-6.46 6.41a3.56 3.56 0 0 1-1.14.82 4.48 4.48 0 0 1-1.39.44h-.92a22.59 22.59 0 0 1-3-.32A22.3 22.3 0 0 1 27.23 44a42.62 42.62 0 0 1-6.78-3.71 51.36 51.36 0 0 1-8.06-6.8 53.34 53.34 0 0 1-5.63-6.41 46.3 46.3 0 0 1-3.6-5.66 30.5 30.5 0 0 1-2-4.71A24.08 24.08 0 0 1 .2 13a12.31 12.31 0 0 1-.2-2.37v-1a4.77 4.77 0 0 1 .49-1.35 3.73 3.73 0 0 1 .83-1.14L7.78.68A2.14 2.14 0 0 1 9.33 0a1.85 1.85 0 0 1 1.12.36 3.52 3.52 0 0 1 .82.9l5.2 9.86a2.37 2.37 0 0 1 .24 1.7 3 3 0 0 1-.82 1.55l-2.38 2.38a.79.79 0 0 0-.17.32 1.18 1.18 0 0 0-.08.36 8.88 8.88 0 0 0 .88 2.33 20.93 20.93 0 0 0 1.8 2.84 29.89 29.89 0 0 0 3.44 3.86 32.35 32.35 0 0 0 3.89 3.48 23 23 0 0 0 2.84 1.82 7.3 7.3 0 0 0 1.75.7l.6.12a1.09 1.09 0 0 0 .32-.07.87.87 0 0 0 .31-.17l2.77-2.82a3 3 0 0 1 2-.77 2.47 2.47 0 0 1 1.31.29l9.37 5.53a2.46 2.46 0 0 1 1.22 1.61z" fill="#0071bc" data-name="Layer 2"/></svg>