<svg xmlns="http://www.w3.org/2000/svg" viewBox="0 0 187.5 167.09"><defs><style>.cls-1{fill:#0071bc}</style></defs><g id="Layer_2" data-name="Layer 2"><g id="コンテンツ"><path class="cls-1" d="M177.43 13.62h-49.56a50.21 50.21 0 0 0-5.87-4.7 2.75 2.75 0 0 0-3.13 4.52 44.74 44.74 0 1 1-11.15-5.6 2.75 2.75 0 0 0 1.75-5.21 50.45 50.45 0 1 0 23.43 16.49h44.53a4.58 4.58 0 0 1 4.57 4.57v86.45h-21.72a2.75 2.75 0 1 0 0 5.49H182v14.43a4.58 4.58 0 0 1-4.57 4.57H10.07a4.58 4.58 0 0 1-4.58-4.57v-14.43h141a2.75 2.75 0 0 0 0-5.49h-141V23.69a4.58 4.58 0 0 1 4.58-4.57h32.75a2.75 2.75 0 0 0 0-5.5H10.07A10.08 10.08 0 0 0 0 23.69v106.37a10.08 10.08 0 0 0 10.07 10.07h60.2v21.46H62a2.75 2.75 0 0 0 0 5.5h62.86a2.75 2.75 0 0 0 0-5.5h-8.29v-21.46h60.88a10.08 10.08 0 0 0 10.07-10.07V23.69a10.08 10.08 0 0 0-10.07-10.07zm-66.37 148H75.77v-21.49h35.29z"/><path class="cls-1" d="M73.84 28.42a6.57 6.57 0 0 0-6.46-5.35h-2.94a2.75 2.75 0 1 0 0 5.49h2.94a1.09 1.09 0 0 1 1.07.88l8.12 43.06a2.75 2.75 0 0 0 2.7 2.23h1.86a5.06 5.06 0 0 0-1.31 3.41 5.13 5.13 0 1 0 8.94-3.41h11.3a5.13 5.13 0 1 0 7.63 0h2.47a2.75 2.75 0 1 0 0-5.49H81.55l-1.12-5.93h30.69a2.75 2.75 0 0 0 2.7-2.24l4.88-25.72v-.05a3.3 3.3 0 0 0-3.25-3.85h-41zm4.1 21.7h7.49l.57 7.69h-6.61zm19.61 0L97 57.81h-5.5l-.56-7.69zm-7-5.49L90 36.94h8.54L98 44.63zm12 13.18l.56-7.69h7.25l-1.46 7.69zm8.85-13.18h-7.89l.57-7.69h8.77zm-26.93-7.69l.53 7.69h-8.1l-1.45-7.69zm-66.58 53.6h16.25a2.75 2.75 0 0 0 0-5.5H17.89a2.75 2.75 0 0 0 0 5.5zm0 12.39H48.2a2.75 2.75 0 0 0 0-5.5H17.89a2.75 2.75 0 0 0 0 5.5zm145.04-73.45a2.75 2.75 0 0 0-2.74 2.75v6.87h-6.88a2.75 2.75 0 0 0 0 5.49h6.88v6.88a2.75 2.75 0 0 0 5.49 0v-6.88h6.87a2.75 2.75 0 1 0 0-5.49h-6.87v-6.87a2.75 2.75 0 0 0-2.75-2.75z"/></g></g></svg>