<svg xmlns="http://www.w3.org/2000/svg" viewBox="0 0 173.78 130.15"><defs><style>.cls-1{fill:#0071bc}</style></defs><g id="Layer_2" data-name="Layer 2"><g id="コンテンツ"><path class="cls-1" d="M171.23 13.59h-24.59v-11A2.55 2.55 0 0 0 144.1 0h-13.59A2.55 2.55 0 0 0 128 2.55v11H2.55A2.54 2.54 0 0 0 0 16.13V127.6a2.55 2.55 0 0 0 2.55 2.55h15.1c3.28 0 3.28-5.09 0-5.09H5.09V18.68h163.59v106.38H31.79c-3.28 0-3.28 5.09 0 5.09h139.44a2.55 2.55 0 0 0 2.55-2.55V16.13a2.55 2.55 0 0 0-2.55-2.54zm-38.17 0v-8.5h8.49v8.5z"/><path class="cls-1" d="M36.47 26.46a24.61 24.61 0 1 0 24.61 24.6 24.63 24.63 0 0 0-24.61-24.6zm0 44.12A19.52 19.52 0 1 1 56 51.06a19.54 19.54 0 0 1-19.53 19.52z"/><path class="cls-1" d="M36.47 42.23a8.84 8.84 0 1 0 8.84 8.83 8.85 8.85 0 0 0-8.84-8.83zm0 12.58a3.75 3.75 0 1 1 3.75-3.75 3.75 3.75 0 0 1-3.75 3.75zm92-3.75a8.84 8.84 0 1 0 8.83-8.83 8.84 8.84 0 0 0-8.83 8.83zm12.58 0a3.75 3.75 0 1 1-3.75-3.74 3.75 3.75 0 0 1 3.75 3.74z"/><path class="cls-1" d="M148.38 67.13c-2.7 1.87.19 6.06 2.89 4.19a24.6 24.6 0 1 0-14 4.35c3.29 0 3.29-5.09 0-5.09a19.52 19.52 0 1 1 11.08-3.45zM72.07 47.21a2.55 2.55 0 0 0-2.55 2.54v5.84a2.55 2.55 0 0 0 2.55 2.55h29.64a2.54 2.54 0 0 0 2.54-2.55V29a2.54 2.54 0 0 0-2.54-2.54H72.07A2.55 2.55 0 0 0 69.52 29v8.25c0 3.28 5.09 3.28 5.09 0v-5.7h24.55v21.5H74.61v-3.3a2.54 2.54 0 0 0-2.54-2.54zm-2.55 26.31a2.55 2.55 0 0 0 2.55 2.55h29.64a2.54 2.54 0 0 0 2.54-2.55v-8.59a2.54 2.54 0 0 0-2.54-2.55H72.07a2.55 2.55 0 0 0-2.55 2.55zm5.09-6h24.55V71H74.61zM24.59 82.74H14.41a2.55 2.55 0 0 0-2.54 2.55v10.18A2.55 2.55 0 0 0 14.41 98h10.18a2.55 2.55 0 0 0 2.55-2.55V85.29a2.55 2.55 0 0 0-2.55-2.55zm-2.54 10.19H17v-5.09h5.09zm25.18-7.64a2.54 2.54 0 0 0-2.54-2.55H34.51A2.55 2.55 0 0 0 32 85.29v10.18A2.55 2.55 0 0 0 34.51 98h10.18a2.54 2.54 0 0 0 2.54-2.55zm-5.09 7.64h-5.09v-5.09h5.09zm25.19-7.64a2.55 2.55 0 0 0-2.55-2.55H54.6a2.55 2.55 0 0 0-2.55 2.55v10.18A2.55 2.55 0 0 0 54.6 98h10.18a2.55 2.55 0 0 0 2.55-2.55zm-5.1 7.64h-5.09v-5.09h5.09zm-37.64 9.55H14.41a2.55 2.55 0 0 0-2.54 2.52v10.18a2.54 2.54 0 0 0 2.54 2.54h10.18a2.54 2.54 0 0 0 2.55-2.54V105a2.55 2.55 0 0 0-2.55-2.55zm-2.54 10.18H17v-5.09h5.09zm22.64-10.18H34.51A2.55 2.55 0 0 0 32 105v10.18a2.54 2.54 0 0 0 2.55 2.54h10.14a2.53 2.53 0 0 0 2.54-2.54V105a2.54 2.54 0 0 0-2.54-2.55zm-2.55 10.18h-5.09v-5.09h5.09zm22.64-10.18H54.6a2.55 2.55 0 0 0-2.55 2.52v10.18a2.54 2.54 0 0 0 2.55 2.54h10.18a2.54 2.54 0 0 0 2.55-2.54V105a2.55 2.55 0 0 0-2.55-2.55zm-2.55 10.18h-5.09v-5.09h5.09zm10.69-27.37v29.92a2.53 2.53 0 0 0 2.54 2.54h83.9a2.54 2.54 0 0 0 2.55-2.54V85.29a2.55 2.55 0 0 0-2.55-2.55h-83.9a2.54 2.54 0 0 0-2.54 2.55zM78 87.84h78.81v24.82h-7.09V95.47c0-3.28-5.09-3.28-5.09 0v17.19h-6.82v-4.93c0-3.28-5.09-3.28-5.09 0v4.93h-6.82v-12.41c0-3.28-5.09-3.28-5.09 0v12.41H114v-9.46c0-3.28-5.09-3.28-5.09 0v9.46h-6.82V95.47c0-3.28-5.09-3.28-5.09 0v17.19h-6.82v-4.93c0-3.28-5.09-3.28-5.09 0v4.93H78z"/></g></g></svg>