<svg xmlns="http://www.w3.org/2000/svg" viewBox="0 0 150.1 181.43"><defs><style>.cls-1{fill:#0071bc}</style></defs><g id="Layer_2" data-name="Layer 2"><g id="コンテンツ"><path class="cls-1" d="M119.09 119.9H66.75a2.66 2.66 0 0 0 0 5.32h52.34a2.66 2.66 0 0 0 0-5.32zm0 14.57H66.75a2.66 2.66 0 0 0 0 5.32h52.34a2.66 2.66 0 0 0 0-5.32zm2.65-82.8a10 10 0 0 0-10-10H74.12a10 10 0 0 0-10 10V54a2.66 2.66 0 0 0 5.31 0v-2.33A4.72 4.72 0 0 1 74.12 47h37.6a4.72 4.72 0 0 1 4.71 4.71v39.01a30 30 0 0 0-12-9 14.4 14.4 0 1 0-23.07 0 30 30 0 0 0-12 9V66.41a2.66 2.66 0 0 0-5.31 0V98.3a10 10 0 0 0 10 10h37.6a10 10 0 0 0 10-10zm-28.82 12.4a9.08 9.08 0 1 1-9.08 9.08 9.09 9.09 0 0 1 9.08-9.08zm18.8 38.93h-37.6a4.72 4.72 0 0 1-4.25-2.68A24.71 24.71 0 0 1 86 85.77a14.38 14.38 0 0 0 13.86 0A24.72 24.72 0 0 1 116 100.33a4.72 4.72 0 0 1-4.24 2.68z"/><path class="cls-1" d="M147.45 150a2.66 2.66 0 0 0 2.65-2.66V10.17A10.18 10.18 0 0 0 139.93 0H23.2A10.18 10.18 0 0 0 13 10.17v8.67H9a9 9 0 0 0 0 18h4v13.45H9a9 9 0 1 0 0 18h4v13.44H9a9 9 0 1 0 0 18h4v13.49H9a9 9 0 1 0 0 18h4v13.49H9a9 9 0 0 0 0 18h4v8.67a10.19 10.19 0 0 0 10.2 10.05h116.73a10.19 10.19 0 0 0 10.17-10.17v-11.43a2.66 2.66 0 1 0-5.31 0v11.43a4.86 4.86 0 0 1-4.86 4.85H45.44V5.32h94.49a4.86 4.86 0 0 1 4.86 4.85v137.2a2.66 2.66 0 0 0 2.66 2.66zM9 31.48a3.66 3.66 0 1 1 0-7.32h13.39a3.66 3.66 0 0 1 0 7.32zm0 31.45a3.67 3.67 0 0 1 0-7.33h13.39a3.67 3.67 0 0 1 0 7.33zm0 31.45a3.67 3.67 0 0 1 0-7.33h13.39a3.67 3.67 0 0 1 0 7.33zm0 31.45a3.67 3.67 0 0 1 0-7.33h13.39a3.67 3.67 0 0 1 0 7.33zm0 31.44A3.66 3.66 0 1 1 9 150h13.39a3.66 3.66 0 0 1 0 7.32zm31.15 18.84H23.2a4.86 4.86 0 0 1-4.86-4.85v-8.67h4.05a9 9 0 0 0 0-18h-4.05v-13.45h4.05a9 9 0 1 0 0-18h-4.05V99.7h4.05a9 9 0 0 0 0-18h-4.05V68.25h4.05a9 9 0 0 0 0-18h-4.05V36.8h4.05a9 9 0 1 0 0-18h-4.05v-8.63a4.86 4.86 0 0 1 4.86-4.85h16.93z"/></g></g></svg>