<svg xmlns="http://www.w3.org/2000/svg" viewBox="0 0 154.43 171.79"><defs><style>.cls-1{fill:#0071bc;stroke:#0071bc;stroke-miterlimit:10;stroke-width:.89px}</style></defs><g id="Layer_2" data-name="Layer 2"><g id="コンテンツ"><path class="cls-1" d="M148.65 87.23V.45H59.19v10.68H48.51v60.08h-6.68V60.53H.45v110.81H154V87.23zM63.2 4.45h81.44v82.78H138V39l-27.91-27.87H63.2zM111.26 18l19.87 19.87h-19.87zm-4-2.83v26.7H134v45.4H52.52V15.13zM16.47 167.34h-12V64.53h33.36v6.68h-24.7v4h35.38v12h-32zm133.51 0H20.47v-76.1H150z"/><path class="cls-1" d="M143.31 146H112.6v14.68h30.71zm-4 10.68H116.6V150h22.7zM61.19 35.16h21.36v4.01H61.19zm0-10.68h32.04v4.01H61.19zm60.75 22.03H59.19v36.05h62.75zm-4 10.68h-12v-6.68h12zm-44.06 4h12v6.68h-12zm-4 6.68H63.2v-6.68h6.67zm16 4v6.67h-12v-6.66zm4 0h12v6.67h-12zm0-4v-6.68h12v6.68zm0-10.68v-6.68h12v6.68zm16 4h12v6.68h-12zm-20-10.68v6.68H63.2v-6.68zM63.2 71.88h6.67v6.67H63.2zm42.72 6.67v-6.67h12v6.67z"/></g></g></svg>