<svg xmlns="http://www.w3.org/2000/svg" viewBox="0 0 173.05 115.37"><defs><style>.cls-1{fill:#0071bc}</style></defs><g id="Layer_2" data-name="Layer 2"><g id="コンテンツ"><path class="cls-1" d="M170.17 0H2.88A2.88 2.88 0 0 0 0 2.88v109.6a2.88 2.88 0 0 0 2.88 2.89h167.29a2.88 2.88 0 0 0 2.88-2.89V2.88A2.88 2.88 0 0 0 170.17 0zm-2.89 109.6H5.77V5.77h161.51z"/><path class="cls-1" d="M112.48 75h46.15a2.88 2.88 0 0 0 2.88-2.89V14.42a2.88 2.88 0 0 0-2.88-2.88h-46.15a2.88 2.88 0 0 0-2.88 2.88V72.1a2.88 2.88 0 0 0 2.88 2.9zm2.89-57.68h40.38v51.9h-40.38zM11.54 11.54h31.73v5.77H11.54zm0 8.65h37.49v5.77H11.54zm43.26 0h11.54v5.77H54.8zm-43.26 8.65h11.54v5.77H11.54zm17.3 0h37.49v5.77H28.84zm80.76 51.92h23.07v5.77H109.6zm28.84 0h23.07v5.77h-23.07zm-28.84 8.65h51.92v5.77H109.6zm0 8.65h14.42v5.77H109.6zm20.19 0h31.73v5.77h-31.73zM26.82 82.28l-5.64 17.36a2.89 2.89 0 0 0 1.82 3.63 2.92 2.92 0 0 0 2.59-.41l14.79-10.73 14.76 10.73a2.88 2.88 0 0 0 4.44-3.22l-5.65-17.36L68.7 71.56a2.89 2.89 0 0 0-1.7-5.22H48.76L43.12 49a2.88 2.88 0 0 0-5.48 0L32 66.34H13.75a2.89 2.89 0 0 0-1.7 5.22zm7.27-10.18a2.87 2.87 0 0 0 2.74-2l3.55-10.9 3.54 10.9a2.89 2.89 0 0 0 2.75 2h11.46l-9.28 6.74a2.89 2.89 0 0 0-1 3.23L51.34 93l-9.27-6.73a2.87 2.87 0 0 0-3.39 0L29.42 93 33 82.07a2.89 2.89 0 0 0-1-3.23l-9.37-6.74z"/></g></g></svg>