<svg xmlns="http://www.w3.org/2000/svg" xmlns:xlink="http://www.w3.org/1999/xlink" viewBox="0 0 161.35 161.35"><defs><linearGradient id="a" y1="59.16" x2="161.35" y2="59.16" gradientUnits="userSpaceOnUse"><stop offset="0" stop-color="#0071bc"/><stop offset="1" stop-color="#0059bc"/></linearGradient><linearGradient id="b" x1="10.76" y1="99.5" x2="26.89" y2="99.5" xlink:href="#a"/><linearGradient id="c" x1="26.89" y1="99.5" x2="43.03" y2="99.5" xlink:href="#a"/><linearGradient id="d" x1="118.32" y1="104.88" x2="150.59" y2="104.88" xlink:href="#a"/><linearGradient id="e" y1="21.51" x2="32.27" y2="21.51" xlink:href="#a"/><linearGradient id="f" x1="129.08" y1="142.53" x2="161.35" y2="142.53" xlink:href="#a"/><linearGradient id="g" x1="145.21" y1="150.59" x2="150.59" y2="150.59" xlink:href="#a"/><linearGradient id="h" x1="37.65" y1="20.17" x2="61.85" y2="20.17" xlink:href="#a"/><linearGradient id="i" x1="99.5" y1="130.42" x2="123.7" y2="130.42" xlink:href="#a"/><linearGradient id="j" x1="124.19" y1="52.47" x2="134.05" y2="52.47" gradientTransform="rotate(56.29 129.131 52.467)" xlink:href="#a"/><linearGradient id="k" x1="132.96" y1="61.83" x2="144" y2="61.83" gradientTransform="rotate(33.21 138.482 61.824)" xlink:href="#a"/></defs><g opacity=".99" data-name="Layer 2"><path d="M158.66 75.3H131.5a13.47 13.47 0 0 0-13.18-10.76H50.68L149 21.28a2.68 2.68 0 0 0 1.38-3.54 2.11 2.11 0 0 0-.18-.33l-10-16.14a2.7 2.7 0 0 0-3.38-1L4.28 59.4A2.68 2.68 0 0 0 2.92 63a.47.47 0 0 0 .05.1l6.12 12.2h-6.4A2.68 2.68 0 0 0 0 78v37.64a2.68 2.68 0 0 0 2.69 2.69h156a2.68 2.68 0 0 0 2.69-2.69V78a2.68 2.68 0 0 0-2.72-2.7zm-32.73 0H35.42A8.08 8.08 0 0 1 43 69.92h75.29a8.08 8.08 0 0 1 7.64 5.38zm10.91-69.2L144 17.61 14.71 74.49 9 63.16zM30.42 73.45a14.66 14.66 0 0 0-.57 1.85h-3.62zM156 112.94H5.38V80.67H156z" fill="url(#a)"/><path d="M18.82 91.43a8.07 8.07 0 1 0 8.07 8.07 8.06 8.06 0 0 0-8.07-8.07zm0 10.76a2.69 2.69 0 1 1 2.69-2.69 2.7 2.7 0 0 1-2.69 2.69z" fill="url(#b)"/><path d="M35 91.43a8.07 8.07 0 1 0 8 8.07 8.07 8.07 0 0 0-8-8.07zm0 10.76a2.69 2.69 0 1 1 2.69-2.69 2.69 2.69 0 0 1-2.69 2.69z" fill="url(#c)"/><path fill="url(#d)" d="M118.32 102.19h32.27v5.38h-32.27z"/><path d="M2.69 43h26.89a2.69 2.69 0 0 0 2.69-2.69V10.76a2.65 2.65 0 0 0-.79-1.9L23.41.79a2.65 2.65 0 0 0-1.9-.79H2.69A2.68 2.68 0 0 0 0 2.69v37.65A2.69 2.69 0 0 0 2.69 43zm23.09-32.24h-4.27V6.49zM5.38 5.38h10.75v8.07a2.69 2.69 0 0 0 2.69 2.68h8.07v21.52H5.38z" fill="url(#e)"/><path d="M158.66 123.7h-26.89a2.69 2.69 0 0 0-2.69 2.69v32.27a2.68 2.68 0 0 0 2.69 2.69h26.89a2.68 2.68 0 0 0 2.69-2.69v-32.27a2.69 2.69 0 0 0-2.69-2.69zM156 156h-21.54v-26.92H156z" fill="url(#f)"/><path fill="url(#g)" d="M145.21 147.9h5.38v5.38h-5.38z"/><path fill="url(#h)" d="M61.85 26.89V13.45h-24.2v5.37h18.82v8.07h5.38z"/><path fill="url(#i)" d="M99.5 123.7v13.45h24.2v-5.38h-18.82v-8.07H99.5z"/><path transform="rotate(-56.29 129.134 52.468)" fill="url(#j)" d="M124.27 49.78h9.7v5.38h-9.7z"/><path transform="rotate(-33.21 138.47 61.833)" fill="url(#k)" d="M133.65 59.14h9.67v5.38h-9.67z"/></g></svg>