<svg xmlns="http://www.w3.org/2000/svg" viewBox="0 0 128.65 181.46"><defs><style>.cls-1{fill:#0071bc}</style></defs><g id="Layer_2" data-name="Layer 2"><g id="コンテンツ"><path class="cls-1" d="M126 161.33a2.66 2.66 0 0 0 2.65-2.66V38.1a8 8 0 0 0-8-8H118V23a8 8 0 0 0-8-8H98.3a2.66 2.66 0 0 0 0 5.32h11.75A2.66 2.66 0 0 1 112.7 23v135.42a2.66 2.66 0 0 1-2.65 2.66H8a2.66 2.66 0 0 1-2.65-2.66v-10.81a2.66 2.66 0 0 0-5.32 0v10.81a8 8 0 0 0 8 8h2.66v7.09a8 8 0 0 0 8 8h101.99a8 8 0 0 0 8-8v-3.4a2.66 2.66 0 1 0-5.31 0v3.4a2.67 2.67 0 0 1-2.66 2.66H18.61a2.67 2.67 0 0 1-2.61-2.68v-7.09h94.1a8 8 0 0 0 8-8v-123h2.66a2.67 2.67 0 0 1 2.66 2.66v120.61a2.66 2.66 0 0 0 2.66 2.66zM2.66 138.63A2.66 2.66 0 0 0 5.32 136V23A2.66 2.66 0 0 1 8 20.38h4.84v8.92a5.09 5.09 0 0 0 5.08 5.08h30.6a5.09 5.09 0 0 0 5.08-5.08v-8.92h33.3a2.66 2.66 0 0 0 0-5.32H52.76a7.93 7.93 0 0 0-7.11-4.43h-2V7.12A7.12 7.12 0 0 0 36.53 0h-6.68a7.13 7.13 0 0 0-7.12 7.12v3.51h-2a7.93 7.93 0 0 0-7.11 4.43H8a8 8 0 0 0-8 8V136a2.66 2.66 0 0 0 2.66 2.66zM28.05 7.12a1.8 1.8 0 0 1 1.8-1.8h6.68a1.8 1.8 0 0 1 1.8 1.8v3.51H28.05zM20.73 16h24.92a2.6 2.6 0 0 1 2.6 2.6v10.46H18.13V18.55a2.6 2.6 0 0 1 2.6-2.6z"/><path class="cls-1" d="M97.46 59.19H54.93a2.66 2.66 0 0 0 0 5.31h42.53a2.66 2.66 0 1 0 0-5.31zm0 11.34H54.93a2.66 2.66 0 0 0 0 5.32h42.53a2.66 2.66 0 1 0 0-5.32zm0 23.04H54.93a2.66 2.66 0 0 0 0 5.31h42.53a2.66 2.66 0 1 0 0-5.31zm0 11.34H54.93a2.66 2.66 0 0 0 0 5.31h42.53a2.66 2.66 0 1 0 0-5.31zm0 23.03H54.93a2.66 2.66 0 0 0 0 5.32h42.53a2.66 2.66 0 1 0 0-5.32zm0 11.35H54.93a2.66 2.66 0 0 0 0 5.31h42.53a2.66 2.66 0 1 0 0-5.31zM50.22 55.34a2.66 2.66 0 0 0-3.75-.3L44 57.14a4.09 4.09 0 0 0-3.62-2.21H22A4.08 4.08 0 0 0 17.9 59v18.44a4.08 4.08 0 0 0 4.1 4.08h18.4a4.08 4.08 0 0 0 4.08-4.08V63.73l5.45-4.65a2.65 2.65 0 0 0 .29-3.74zM39.16 76.2H23.21v-16h15.95v1l-5.27 4.5-2.52-2.72a2.66 2.66 0 0 0-3.91 3.6l4.26 4.61a2.62 2.62 0 0 0 2 .85 2.69 2.69 0 0 0 1.73-.63l3.76-3.22zM50.22 90a2.66 2.66 0 0 0-3.75-.29l-2.37 2a4.08 4.08 0 0 0-3.7-2.38H22a4.08 4.08 0 0 0-4.07 4.08v18.43a4.07 4.07 0 0 0 4.07 4.05h18.4a4.08 4.08 0 0 0 4.08-4.07V98.36l5.45-4.65a2.66 2.66 0 0 0 .29-3.71zm-11.06 20.58H23.21v-16h15.95v1.28l-5.27 4.5-2.52-2.73a2.66 2.66 0 0 0-3.91 3.61l4.26 4.61a2.66 2.66 0 0 0 3.68.21l3.76-3.21zm7.31 14.1l-2.18 1.87a4.07 4.07 0 0 0-3.89-2.86H22a4.08 4.08 0 0 0-4.07 4.08v18.43a4.08 4.08 0 0 0 4.07 4.07h18.4a4.08 4.08 0 0 0 4.08-4.07v-12.82l5.45-4.65a2.66 2.66 0 0 0-3.46-4zM39.16 145H23.21v-16h15.95v1.91l-5.27 4.51-2.52-2.73a2.66 2.66 0 0 0-3.91 3.6l4.26 4.61a2.65 2.65 0 0 0 3.68.22l3.76-3.22z"/></g></g></svg>