<svg xmlns="http://www.w3.org/2000/svg" viewBox="0 0 117.7 153"><path d="M115.36 0H2.34A2.34 2.34 0 0 0 0 2.34v148.32A2.34 2.34 0 0 0 2.34 153h113a2.34 2.34 0 0 0 2.34-2.34V2.34A2.34 2.34 0 0 0 115.36 0zM113 4.79v49H4.68v-49zM4.68 148.32V58.5H113v89.82zm7.71-100.66h92.92a2.35 2.35 0 0 0 2.35-2.35V13.19a2.35 2.35 0 0 0-2.35-2.35H12.39a2.35 2.35 0 0 0-2.34 2.35v32.13a2.34 2.34 0 0 0 2.34 2.34zm2.34-32.14H103V43H14.73zm15.76 48.86h-18.1a2.34 2.34 0 0 0-2.34 2.34v10.86a2.34 2.34 0 0 0 2.34 2.34h18.1a2.34 2.34 0 0 0 2.35-2.34V66.72a2.35 2.35 0 0 0-2.35-2.35zm-2.34 10.86H14.73v-6.18h13.42zm27.28-10.86h-18.1A2.34 2.34 0 0 0 35 66.72v10.86a2.34 2.34 0 0 0 2.34 2.34h18.1a2.34 2.34 0 0 0 2.35-2.34V66.72a2.35 2.35 0 0 0-2.35-2.35zM53.1 75.24H39.67v-6.18H53.1zm27.28-10.86H62.27a2.34 2.34 0 0 0-2.34 2.34v10.86a2.34 2.34 0 0 0 2.34 2.34h18.1a2.34 2.34 0 0 0 2.35-2.34V66.72a2.35 2.35 0 0 0-2.35-2.35zM78 75.24H64.61v-6.18H78zm27.28-10.86H87.21a2.34 2.34 0 0 0-2.34 2.34v31a2.34 2.34 0 0 0 2.34 2.28h18.1a2.35 2.35 0 0 0 2.35-2.34v-31a2.35 2.35 0 0 0-2.35-2.35zm-2.34 31H89.55V69.06H103zM30.49 84.49h-18.1a2.34 2.34 0 0 0-2.34 2.34V97.7a2.34 2.34 0 0 0 2.34 2.3h18.1a2.35 2.35 0 0 0 2.35-2.34V86.83a2.35 2.35 0 0 0-2.35-2.34zm-2.34 10.86H14.73v-6.17h13.42zm27.28-10.86h-18.1A2.34 2.34 0 0 0 35 86.83V97.7a2.34 2.34 0 0 0 2.33 2.3h18.1a2.35 2.35 0 0 0 2.35-2.34V86.83a2.35 2.35 0 0 0-2.35-2.34zM53.1 95.35H39.67v-6.17H53.1zm27.28-10.86H62.27a2.34 2.34 0 0 0-2.34 2.34V97.7a2.34 2.34 0 0 0 2.34 2.3h18.1a2.35 2.35 0 0 0 2.35-2.34V86.83a2.35 2.35 0 0 0-2.35-2.34zM78 95.35H64.61v-6.17H78zm-47.55 9.26H12.39a2.34 2.34 0 0 0-2.34 2.39v10.86a2.34 2.34 0 0 0 2.34 2.34h18.1a2.35 2.35 0 0 0 2.35-2.34V107a2.35 2.35 0 0 0-2.35-2.34zm-2.34 10.86H14.73v-6.17h13.42zm27.28-10.86H37.33A2.34 2.34 0 0 0 35 107v10.86a2.34 2.34 0 0 0 2.34 2.34h18.1a2.35 2.35 0 0 0 2.35-2.34V107a2.35 2.35 0 0 0-2.35-2.34zm-2.29 10.86H39.67v-6.17H53.1zm27.27-10.86h-18.1a2.34 2.34 0 0 0-2.34 2.39v10.86a2.34 2.34 0 0 0 2.34 2.34h18.1a2.35 2.35 0 0 0 2.35-2.34V107a2.35 2.35 0 0 0-2.35-2.34zM78 115.47H64.61v-6.17H78zm-47.54 9.25H12.39a2.35 2.35 0 0 0-2.34 2.35v10.86a2.34 2.34 0 0 0 2.34 2.34h18.1a2.35 2.35 0 0 0 2.35-2.34v-10.86a2.36 2.36 0 0 0-2.35-2.35zm-2.34 10.87H14.73v-6.18h13.42zm27.28-10.87H37.33a2.35 2.35 0 0 0-2.33 2.35v10.86a2.34 2.34 0 0 0 2.34 2.34h18.1a2.35 2.35 0 0 0 2.35-2.34v-10.86a2.36 2.36 0 0 0-2.35-2.35zm-2.34 10.87H39.67v-6.18H53.1zm27.28-10.87H62.27a2.35 2.35 0 0 0-2.34 2.35v10.86a2.34 2.34 0 0 0 2.34 2.34h18.1a2.35 2.35 0 0 0 2.35-2.34v-10.86a2.36 2.36 0 0 0-2.35-2.35zM78 135.59H64.61v-6.18H78zm27.28-31H87.21a2.34 2.34 0 0 0-2.34 2.41v10.86a2.34 2.34 0 0 0 2.34 2.34h18.1a2.35 2.35 0 0 0 2.35-2.34V107a2.35 2.35 0 0 0-2.35-2.34zM103 115.47H89.55v-6.17H103zm2.34 9.25H87.21a2.35 2.35 0 0 0-2.34 2.35v10.86a2.34 2.34 0 0 0 2.34 2.34h18.1a2.35 2.35 0 0 0 2.35-2.34v-10.86a2.36 2.36 0 0 0-2.35-2.35zM103 135.59H89.55v-6.18H103zM39.67 35.16a2.34 2.34 0 0 1-2.34 2.34H21.44a2.34 2.34 0 1 1 0-4.68h15.89a2.34 2.34 0 0 1 2.34 2.34zm13.88 0a2.34 2.34 0 0 1-2.34 2.34h-4.83a2.34 2.34 0 1 1 0-4.68h4.83a2.34 2.34 0 0 1 2.34 2.34z" fill="#fff" data-name="Layer 2"/></svg>