<svg xmlns="http://www.w3.org/2000/svg" viewBox="0 0 149 184.83"><defs><style>.cls-1{fill:#fff}</style></defs><g id="Layer_2" data-name="Layer 2"><g id="コンテンツ"><path class="cls-1" d="M74.49 184.83a3 3 0 0 1-1.1-.21L2.07 157A3.18 3.18 0 0 1 0 154.17V66.81A3.15 3.15 0 0 1 2.06 64l38.63-15-.29-.92a36.13 36.13 0 1 1 68.17 0l-.32.92 38.69 15a3.15 3.15 0 0 1 2.06 2.81v87.36a3.19 3.19 0 0 1-2.06 2.85l-70.53 27.31-.79.28a3 3 0 0 1-1.13.22zM78 96.51v80.81l65-25.24V71.27l-18 6.87v28.18a3.11 3.11 0 0 1-3.11 3.05 3.08 3.08 0 0 1-1.67-.5l-6.41-4.16-11.43 12.13a3 3 0 0 1-2.22 1 3.38 3.38 0 0 1-1.18-.22 3.08 3.08 0 0 1-2-2.84V88.92zM6 152.08l65 25.24V96.51L6 71.27zm97-65.52v20.49l8-8.38a3.2 3.2 0 0 1 2.28-1 3.4 3.4 0 0 1 1.78.5l3.94 2.53V80.51zM11.73 66.81L74.5 91.14l16.73-6.49-62.51-24.43zm79.41 1.44a36 36 0 0 1-10.82 3.58l-3.62.59 23 9 13.24-5.13L91.54 68zm14-13a36.1 36.1 0 0 1-6.26 7.55l-1.18 1.09L121.36 73l15.91-6.16-31.69-12.31zM74.5 6.55a29.8 29.8 0 1 0 27.73 18.37A29.94 29.94 0 0 0 74.5 6.55zM37.15 57l11.19 4.38-2.24-2.92a36.67 36.67 0 0 1-2.25-3.23l-.43-.71z"/><path class="cls-1" d="M69.9 48.11a3 3 0 0 1-2-.73l-10.42-8.82a2.81 2.81 0 0 1-1-3.27 3.3 3.3 0 0 1 2.93-2.19 3 3 0 0 1 2 .8l8.43 7.1 17.67-15.87a3 3 0 0 1 4.41.13 3.05 3.05 0 0 1-.3 4.38L71.94 47.33a3.05 3.05 0 0 1-2 .78z"/></g></g></svg>