<svg xmlns="http://www.w3.org/2000/svg" viewBox="0 0 105.2 168.31"><defs><style>.cls-1{fill:#fff}</style></defs><g id="Layer_2" data-name="Layer 2"><g id="コンテンツ"><path class="cls-1" d="M105.2 114.49V90a1.34 1.34 0 0 0 0-.2L103 51.53c-.62-10.51-6.42-12.07-9.82-12.07a12.85 12.85 0 0 0-6.74 1.93L83.9 22.75c-1.22-9.13-6.9-11.66-11.39-11.06-4.82.64-9.56 4.77-11.73 10.5L57 9.64C55 2.84 50.64.86 48.22.29a12.55 12.55 0 0 0-11.85 4A16.07 16.07 0 0 0 33 20.15L43.49 55c-6.06-1.3-11.36 1.54-17.62 6.61C19 67.18 7.8 73.05 5.2 74.32s-4.14 4.3-3.71 7.79a12 12 0 0 0 3 6.4 11.48 11.48 0 0 0-3.09 3 7 7 0 0 0-.28 8c.47.68 1 1.35 1.57 2.06a38.61 38.61 0 0 1 6.78 12c3.53 9.31 9.53 13.49 14.32 16.86 4.59 3.19 7.84 5.46 8.71 11a3.28 3.28 0 0 0-2.74 3.24V165a3.29 3.29 0 0 0 3.29 3.29h66.12a3.29 3.29 0 0 0 3.29-3.29v-20.32a3.29 3.29 0 0 0-2.78-3.25 71.81 71.81 0 0 1 2.53-11c1.47-5.16 3-10.5 3-16zm-9.32 47.24H36.33V148h15a3.29 3.29 0 1 0 0-6.57H39.12c-1-9-6.38-12.74-11.56-16.36-4.5-3.13-9.15-6.37-11.92-13.77a45 45 0 0 0-7.81-13.8c-.5-.62-.93-1.17-1.25-1.64a2.79 2.79 0 0 1 1.07-1.51 7.39 7.39 0 0 1 6.23-1.53c4.78 1 6.18 2.9 8.29 5.77a25.59 25.59 0 0 0 9.46 8.53c3.66 1.91 6.74 3.3 10.22 2.37 3.29-.88 6.15-3.68 10-8.21A9.85 9.85 0 0 0 53 89.43c-1.75-3.21-4.88-6.22-8.48-9.54-5.85-5.39-12.11-1.64-17.14 1.37-4.66 2.74-9.44 5.62-15.22 4.44a5.34 5.34 0 0 1-3.87-3.34 3 3 0 0 1-.19-2.14c3.43-1.67 14.66-7.65 21.9-13.52 8.27-6.7 11.6-6.62 16.86-3.07a14.89 14.89 0 0 0 3.92 1.81 9 9 0 0 1 4.16 2.46 3.28 3.28 0 1 0 4.57-4.72 15.31 15.31 0 0 0-6.67-4 13.27 13.27 0 0 1-1.37-.51L39.31 18.25c-1.54-5.15.78-8.34 1.84-9.47a6.05 6.05 0 0 1 5.56-2.1c2.29.55 3.45 2.94 4 4.84L64 55.93a19.23 19.23 0 0 0 3.66 6.67c1.81 2.38 3.37 4.44 3.8 9a3.3 3.3 0 0 0 3.27 3h.32A3.29 3.29 0 0 0 78 71a21.76 21.76 0 0 0-5.1-12.37 13.16 13.16 0 0 1-2.57-4.48.14.14 0 0 1 0-.07l-1.66-5.55-2.41-18c-.89-6.7 3.7-11.85 7.14-12.3 2.67-.36 3.65 2.75 4 5.41l7.79 58.31a3.28 3.28 0 1 0 6.51-.87l-4-30.24a3.44 3.44 0 0 1 .92-2.75 6.14 6.14 0 0 1 4.56-2c.94 0 2.91 0 3.26 5.89l2.23 38.14v24.43c0 4.57-1.33 9.24-2.74 14.19a74.66 74.66 0 0 0-2.82 12.71H80.9a3.29 3.29 0 1 0 0 6.57h15zM23.93 90.55a56.73 56.73 0 0 0 6.79-3.65c5.57-3.33 7.36-4 9.32-2.18 8.19 7.55 8.89 9.8 6.76 12.32-2.33 2.76-4.94 5.64-6.65 6.1-1.09.29-2.63-.36-5.47-1.85a19 19 0 0 1-7.21-6.6 26.45 26.45 0 0 0-3.54-4.14z"/><path class="cls-1" d="M66.11 141.39a3.29 3.29 0 1 0 3.29 3.29 3.28 3.28 0 0 0-3.29-3.29z"/></g></g></svg>