<svg xmlns="http://www.w3.org/2000/svg" viewBox="0 0 167.99 167.99"><defs><style>.cls-1{fill:#fff}</style></defs><g id="Layer_2" data-name="Layer 2"><g id="コンテンツ"><path class="cls-1" d="M165.19 89.6H2.8A2.8 2.8 0 0 0 0 92.4v50.39a2.8 2.8 0 0 0 2.8 2.8h13.47l3.33 8.91v10.69a2.8 2.8 0 0 0 2.8 2.8h39.2a2.8 2.8 0 0 0 2.8-2.8v-10.3l6.63-9.3H97l6.64 9.3v10.3a2.79 2.79 0 0 0 2.79 2.8h39.2a2.8 2.8 0 0 0 2.8-2.8V154.5l3.34-8.91h13.46a2.8 2.8 0 0 0 2.8-2.8V92.4a2.8 2.8 0 0 0-2.8-2.8zM58.8 162.39H25.2v-5.6h33.6zm14-31.58a8.18 8.18 0 0 1-1.57 4.87l-11.06 15.51H24.33l-7-18.67a8.17 8.17 0 0 1-.53-3v-20.33a2.8 2.8 0 1 1 5.6 0v11.2H28v-11.2a2.8 2.8 0 0 1 5.6 0v11.2h5.6v-11.2a2.8 2.8 0 0 1 5.6 0v11.2h5.6v-11.2a2.8 2.8 0 1 1 5.6 0v19.6h5.6v-8.4a5.6 5.6 0 1 1 11.2 0zm70 31.58h-33.6v-5.6h33.6zm8.4-32.84a8.17 8.17 0 0 1-.53 3l-7 18.67h-35.85l-11.06-15.54a8.17 8.17 0 0 1-1.56-4.87v-10.42a5.6 5.6 0 1 1 11.19 0v8.4H112v-19.6a2.8 2.8 0 0 1 5.6 0v11.2h5.6v-11.2a2.8 2.8 0 1 1 5.6 0v11.2h5.6v-11.2a2.8 2.8 0 0 1 5.6 0v11.2h5.6v-11.2a2.8 2.8 0 0 1 5.6 0zM162.39 140h-8.56l2.07-5.51a14.09 14.09 0 0 0 .89-4.93v-20.37a8.41 8.41 0 0 0-8.4-8.39 8.3 8.3 0 0 0-5.6 2.18 8.28 8.28 0 0 0-11.2 0 8.28 8.28 0 0 0-11.2 0 8.27 8.27 0 0 0-5.6-2.18 8.42 8.42 0 0 0-8.4 8.39v1.57a10.92 10.92 0 0 0-5.59-1.57 11.2 11.2 0 0 0-11.2 11.2v10.42a13.85 13.85 0 0 0 2.6 8.12L93 140H75l.75-1.06a13.86 13.86 0 0 0 2.61-8.12v-10.43a11.21 11.21 0 0 0-11.2-11.2 10.93 10.93 0 0 0-5.6 1.57v-1.57a8.42 8.42 0 0 0-8.4-8.39 8.3 8.3 0 0 0-5.56 2.2 8.28 8.28 0 0 0-11.2 0 8.28 8.28 0 0 0-11.2 0 8.3 8.3 0 0 0-5.6-2.18 8.42 8.42 0 0 0-8.4 8.39v20.36a13.88 13.88 0 0 0 .9 4.93l2.07 5.5H5.6V95.2h156.79zM145.59 0H22.4a2.8 2.8 0 0 0-2.8 2.8V70a2.8 2.8 0 0 0 2.8 2.8h8.4v8.4a2.8 2.8 0 0 0 2.8 2.8h100.79a2.8 2.8 0 0 0 2.8-2.8v-8.4h8.4a2.8 2.8 0 0 0 2.8-2.8V2.8a2.8 2.8 0 0 0-2.8-2.8zm-14 78.4H36.4v-5.6h95.19zM53.2 67.2V28h61.59v39.2zm89.59 0h-22.4v-42a2.8 2.8 0 0 0-2.8-2.8H50.4a2.8 2.8 0 0 0-2.8 2.8v42H25.2V5.6h117.59z"/><path class="cls-1" d="M111.99 11.2h5.6v5.6h-5.6zm19.6 14h5.6V14a2.8 2.8 0 0 0-2.8-2.8h-11.2v5.6h8.4zM58.8 33.6h5.6v5.6h-5.6zm11.2 0h39.2v5.6H70zM58.8 44.8h50.4v5.6H58.8zm0 11.2h50.4v5.6H58.8zM70 100.8h5.6v5.6H70zm11.2 0h5.6v5.6h-5.6zm0 11.19h5.6v5.6h-5.6zm0 11.2h5.6v5.6h-5.6zm11.2-22.39H98v5.6h-5.6z"/></g></g></svg>