<svg xmlns="http://www.w3.org/2000/svg" viewBox="0 0 159.76 159.76"><path d="M159.76 116a12.91 12.91 0 0 0-10.31-12.62V67.9l-2.58-1.15V60.5a7.73 7.73 0 0 0-5.44-7.41 2.71 2.71 0 0 1-1.77-2A61.53 61.53 0 0 0 133.35 36a2.71 2.71 0 0 1-.11-2.64 7.72 7.72 0 0 0-1.4-9.09L122.66 15a7.74 7.74 0 0 0-9.1-1.38 2.72 2.72 0 0 1-2.63-.13 61 61 0 0 0-15.2-6.3 2.7 2.7 0 0 1-1.94-1.77A7.76 7.76 0 0 0 86.37 0h-13A7.75 7.75 0 0 0 66 5.44a2.73 2.73 0 0 1-2 1.78 61 61 0 0 0-15.2 6.3 2.73 2.73 0 0 1-2.64.12A7.74 7.74 0 0 0 37.1 15l-9.18 9.18a7.74 7.74 0 0 0-1.39 9.1 2.72 2.72 0 0 1-.12 2.63 62 62 0 0 0-5.63 12.94l-10.47-3.5v58a12.88 12.88 0 0 0 0 25.25v31.18h139.14v-31.2A12.92 12.92 0 0 0 159.76 116zM30.86 38.54a7.86 7.86 0 0 0 .23-7.62 2.59 2.59 0 0 1 .47-3.06l9.18-9.18a2.62 2.62 0 0 1 3.07-.47 7.82 7.82 0 0 0 7.61-.21 56.54 56.54 0 0 1 13.93-5.8A7.86 7.86 0 0 0 70.89 7a2.6 2.6 0 0 1 2.49-1.84h13A2.62 2.62 0 0 1 88.87 7a7.84 7.84 0 0 0 5.54 5.21A56.16 56.16 0 0 1 108.34 18a7.84 7.84 0 0 0 7.61.24 2.59 2.59 0 0 1 3.06.46l9.19 9.19a2.61 2.61 0 0 1 .46 3.07 7.84 7.84 0 0 0 .24 7.61 56.5 56.5 0 0 1 5.78 13.92 7.81 7.81 0 0 0 5.21 5.51 2.62 2.62 0 0 1 1.83 2.5v4l-10.88-4.83a51.49 51.49 0 0 0-100.28-7.53l-4.89-1.64a56.6 56.6 0 0 1 5.19-12zm94.34 18.58L97.92 45v15.7L56.69 45.24v15.61l-21.24-7.08a46.36 46.36 0 0 1 89.75 3.35zM61.84 68V52.68l41.23 15.46V52.92l41.23 18.33v31.82h-5.16V72.15h-36.07v30.92h-5.15V72.15H61.84v30.92h-5.15V72.15H20.61v30.92h-5.15V52.53zM134 116a7.73 7.73 0 1 1-7.73-7.73A7.74 7.74 0 0 1 134 116zm-108.23 0a7.73 7.73 0 1 1 7.73 7.73 7.74 7.74 0 0 1-7.73-7.73zm10.3-38.7h5.16v5.16h-5.16zm10.31 10.31V77.3h5.15v25.77H25.77V77.3h5.15v10.31zM77.3 77.3h5.16v5.16H77.3zm10.31 10.31V77.3h5.15v25.77H67V77.3h5.15v10.31zm30.92-10.31h5.15v5.16h-5.15zm10.31 10.31V77.3H134v25.77h-25.78V77.3h5.16v10.31zm-54.18 36.07a12.64 12.64 0 0 0 0-15.46H85.1a12.64 12.64 0 0 0 0 15.46zm-18-7.73a7.73 7.73 0 1 1 7.73 7.73 7.74 7.74 0 0 1-7.7-7.68zm-2.51 7.73H43.74a12.64 12.64 0 0 0 0-15.46h10.43a12.62 12.62 0 0 0 0 15.46zM87.61 116a7.73 7.73 0 1 1 7.73 7.73 7.74 7.74 0 0 1-7.73-7.73zm18-7.73H116a12.64 12.64 0 0 0 0 15.46h-10.42a12.64 12.64 0 0 0 0-15.46zm-36 20.62v25.71H30.92v-25.76zm5.16 0H85v25.71H74.73zm15.46 0h38.65v25.71H90.19zM5.15 116a7.74 7.74 0 0 1 7.73-7.73h10.38a12.6 12.6 0 0 0 0 15.46H12.88A7.74 7.74 0 0 1 5.15 116zm10.31 12.89h10.31v25.71H15.46zM134 154.6v-25.76h10.3v25.76zm12.88-30.92H136.5a12.64 12.64 0 0 0 0-15.46h10.37a7.73 7.73 0 0 1 0 15.46z" fill="#0071bc" data-name="Layer 2"/></svg>