<svg xmlns="http://www.w3.org/2000/svg" xmlns:xlink="http://www.w3.org/1999/xlink" viewBox="0 0 166 143.9"><defs><linearGradient id="a" x1="113" y1="92.9" x2="166" y2="92.9" gradientUnits="userSpaceOnUse"><stop offset="0" stop-color="#0071bc"/><stop offset="1" stop-color="#0059bc"/></linearGradient><linearGradient id="b" x1="14.65" y1="34.8" x2="155.59" y2="34.8" xlink:href="#a"/><linearGradient id="c" x1="0" y1="104.9" x2="109.18" y2="104.9" xlink:href="#a"/><linearGradient id="d" x1="45.32" y1="93.88" x2="45.52" y2="93.88" xlink:href="#a"/><linearGradient id="e" x1="43.98" y1="105.78" x2="65.38" y2="105.78" xlink:href="#a"/><linearGradient id="f" x1="45.28" y1="94.42" x2="45.32" y2="94.42" xlink:href="#a"/></defs><g data-name="Layer 2"><path d="M166 50.3v-.46a8 8 0 0 0-8-7.94h-37.26a7.79 7.79 0 0 0-7.74 7.94v.46a7.9 7.9 0 0 0 2.64 5.9 7.91 7.91 0 0 0-2.64 5.9v.46a7.91 7.91 0 0 0 2.64 5.9 7.89 7.89 0 0 0-2.64 5.89v.46a7.9 7.9 0 0 0 2.64 5.9 7.91 7.91 0 0 0-2.64 5.9v.46a7.89 7.89 0 0 0 2.64 5.93 7.91 7.91 0 0 0-2.64 5.9v.46a7.91 7.91 0 0 0 2.64 5.9 7.9 7.9 0 0 0-2.64 5.9v.46a7.89 7.89 0 0 0 2.64 5.89 7.91 7.91 0 0 0-2.64 5.9v.46a7.91 7.91 0 0 0 2.64 5.9 7.9 7.9 0 0 0-2.64 5.9v.46a7.68 7.68 0 0 0 7.74 7.81H158a7.92 7.92 0 0 0 8-7.81v-.46a7.9 7.9 0 0 0-2.64-5.9 7.91 7.91 0 0 0 2.64-5.9v-.46a7.91 7.91 0 0 0-2.64-5.9 7.89 7.89 0 0 0 2.64-5.89v-.46a7.9 7.9 0 0 0-2.64-5.9 7.91 7.91 0 0 0 2.64-5.9v-.46a7.91 7.91 0 0 0-2.64-5.9 7.89 7.89 0 0 0 2.64-5.93v-.46a7.9 7.9 0 0 0-2.64-5.9 7.9 7.9 0 0 0 2.64-5.9v-.46a7.88 7.88 0 0 0-2.64-5.89 7.91 7.91 0 0 0 2.64-5.9v-.46a7.91 7.91 0 0 0-2.64-5.9 7.9 7.9 0 0 0 2.64-5.9zm-4 85.79a4 4 0 0 1-4 3.81h-37.26a3.71 3.71 0 0 1-3.74-3.81v-.46a3.61 3.61 0 0 1 3.67-3.73h37.38a3.85 3.85 0 0 1 3.95 3.73zm0-12.26a4.15 4.15 0 0 1-3.95 4.07h-37.38a3.91 3.91 0 0 1-3.67-4.07v-.46a3.4 3.4 0 0 1 3.66-3.47h37.4c2.11 0 3.94 1.36 3.94 3.47zm0-12.25c0 2.11-1.83 4.32-3.94 4.32h-37.4c-2.11 0-3.66-2.21-3.66-4.32v-.46c0-2.12 1.55-4.22 3.67-4.22h37.38a4.29 4.29 0 0 1 3.95 4.22zm0-12.26a3.74 3.74 0 0 1-3.95 3.58h-37.38a3.49 3.49 0 0 1-3.67-3.58v-.46a3.81 3.81 0 0 1 3.66-4h37.4a4 4 0 0 1 3.94 4zm0-12.25a3.93 3.93 0 0 1-3.94 3.83h-37.4a3.69 3.69 0 0 1-3.66-3.83v-.46a3.59 3.59 0 0 1 3.66-3.71h37.4a3.83 3.83 0 0 1 3.94 3.71zm0-12.26a4.16 4.16 0 0 1-3.94 4.09h-37.4a3.93 3.93 0 0 1-3.66-4.09v-.46a3.39 3.39 0 0 1 3.66-3.45h37.4c2.11 0 3.94 1.34 3.94 3.45zm0-12.25c0 2.11-1.83 3.34-3.94 4.34h-37.4c-2.11-1-3.66-2.23-3.66-4.34v-.46c0-2.11 1.55-4.2 3.66-4.2h37.4a4.27 4.27 0 0 1 3.94 4.2zm0-12.26a3.74 3.74 0 0 1-3.94 3.6h-37.4a3.5 3.5 0 0 1-3.66-3.6v-.46a3.82 3.82 0 0 1 3.74-3.94H158a4.06 4.06 0 0 1 4 3.94z" fill="url(#a)"/><path d="M17.88 69.19L75.27 28l19 22.5a2 2 0 0 0 2.78.3l47.33-36.5 6.45 7.42a2 2 0 0 0 3.55-1.19l1.19-17.15a2 2 0 0 0-1.87-2.16L136.55 0a2 2 0 0 0-1.66 3.34l6.84 7.87L96.12 46.4l-19-22.46a2 2 0 0 0-2.73-.34L15.52 65.91a2 2 0 1 0 2.36 3.28zM141.14 4.38l10.27.71-.72 10.27z" fill="url(#b)"/><path d="M101.26 65.9H64a8.21 8.21 0 0 0-8 8.16v.46a8 8 0 0 0 2.76 6 8.14 8.14 0 0 0-1.53 1.88A22.6 22.6 0 0 0 32 102.9H8.25a8.18 8.18 0 0 0-5.35 14.35 8.21 8.21 0 0 0-.21 12.16A8 8 0 0 0 0 135.32v.46a8.18 8.18 0 0 0 8 8.12h37.26a8 8 0 0 0 7.74-8.12v-.46a7.83 7.83 0 0 0-2.55-5.9 8.28 8.28 0 0 0 1.6-1.94 21.84 21.84 0 0 0 5.11 0 8 8 0 0 0 1.69 2.1 7.91 7.91 0 0 0-2.85 6v.46a7.92 7.92 0 0 0 8 7.82h37.24a7.68 7.68 0 0 0 7.74-7.82v-.46a7.81 7.81 0 0 0-2.73-6.05 8.11 8.11 0 0 0 .09-12.3 8.13 8.13 0 0 0 0-12.29 8.13 8.13 0 0 0 0-12.29 8 8 0 0 0 0-12.21 7.81 7.81 0 0 0 2.63-6v-.46a8 8 0 0 0-7.71-8.08zm-93 41H32a18 18 0 0 0 2.39 8H8.25a4 4 0 1 1 0-8zM4.17 123c.22-2.09 2-4.11 4.08-4.11h28.83a19.82 19.82 0 0 0 10.61 7.67c-.51.44-1.12.33-1.78 1.33H7.37c-2.05-.99-3.43-2.8-3.2-4.89zM49 135.78a4 4 0 0 1-3.74 4.12H8a4.22 4.22 0 0 1-4-4.12v-.46a3.94 3.94 0 0 1 3.23-3.81h38.63a3.84 3.84 0 0 1 3.14 3.81zm-1.5-13.61a18.67 18.67 0 1 1 20.34-4 18.67 18.67 0 0 1-20.34 4zm53.5-7.27H74.86a18 18 0 0 0 2.39-8H101a4 4 0 1 1 0 8zm4.07 8.5c0 2.25-1.82 4.5-4.07 4.5H64.25a4.6 4.6 0 0 1-2.67-1.37 19.78 19.78 0 0 0 10.62-7.63H101c2.28 0 4.1 2.24 4.1 4.5zM61.69 83.68a4.07 4.07 0 0 1 2.56-.78H101a4 4 0 1 1 0 8H72.3c-2.76-4-6.44-5.85-10.61-7.22zM105 136.09a3.71 3.71 0 0 1-3.74 3.81H64a4 4 0 0 1-4-3.81v-.46a3.87 3.87 0 0 1 4-3.73h37.24a3.63 3.63 0 0 1 3.74 3.73zm-4-33.19H77.26a18.28 18.28 0 0 0-2.33-8H101a4 4 0 1 1 0 8zm4-28.38c0 2.14-1.6 3.38-3.74 4.38H64c-2.14-1-4-2.24-4-4.38v-.46a4.25 4.25 0 0 1 4-4.16h37.24a4 4 0 0 1 3.76 4.16z" fill="url(#c)"/><path d="M45.32 94.22a1.87 1.87 0 0 1 .2-.53l-.09-.13c-.04-.07-.08.33-.11.66z" fill="url(#d)"/><path d="M63.87 104.9a1.87 1.87 0 0 0 1.51-2 1.84 1.84 0 0 0-1.51-2h-5.55l5.55-7.19c.14-.25.19.37.19.05 0-1.06-.81-1.43-1.93-1.43a2.07 2.07 0 0 0-1.63 1.1l-5.83 9.77-5.8-9.64a1.83 1.83 0 0 0-1.66-.82 1.86 1.86 0 0 0-1.69 1l5.37 7.21H45.5a1.84 1.84 0 0 0-1.52 2 1.87 1.87 0 0 0 1.52 2H53v4h-7.48a2.07 2.07 0 0 0 0 4H53v3h-.38s.56 3.22 1.69 3.22 1.69.44 1.69-.44v-5.83h7.84a2.07 2.07 0 0 0 0-4H56v-4zm-8.17 13.78z" fill="url(#e)"/><path d="M45.32 94.22a1.5 1.5 0 0 0 0 .37c-.04.12-.02-.1 0-.37z" fill="url(#f)"/></g></svg>