<svg xmlns="http://www.w3.org/2000/svg" viewBox="0 0 160.9 160.94"><path d="M0 107.29a13.4 13.4 0 0 0 20.8 11.18l21.65 21.66a13.4 13.4 0 1 0 24.32 10.07h27.36a13.41 13.41 0 1 0 24.32-10.07l11.66-11.67-3.79-3.79-11.67 11.67a13.39 13.39 0 0 0-20.52 8.5H66.77a13.42 13.42 0 0 0-5.77-8.52l1.56-3.9-5-2-1.56 3.91a13.32 13.32 0 0 0-9.77 2l-21.64-21.65a13.32 13.32 0 0 0 2-9.77l20-8-2-5-20 8a13.39 13.39 0 0 0-8.51-5.77V66.8A13.42 13.42 0 0 0 24.6 61l20 8 2-5-20-8a13.35 13.35 0 0 0-2-9.78l16.68-16.64-3.79-3.79L20.8 42.48A13.41 13.41 0 1 0 10.73 66.8v27.36A13.42 13.42 0 0 0 0 107.29zm107.26 32.18a8 8 0 1 1-8 8.05 8.05 8.05 0 0 1 8-8.05zm-53.63 0a8 8 0 1 1-8 8.05 8 8 0 0 1 8-8.05zM5.36 53.66a8 8 0 1 1 8.05 8.05 8 8 0 0 1-8-8.05zm8.05 45.59a8 8 0 1 1-8 8 8 8 0 0 1 8.05-8zM160.9 53.66a13.4 13.4 0 0 0-20.8-11.18l-21.65-21.65a13.41 13.41 0 1 0-24.32-10.07H66.77A13.42 13.42 0 1 0 56 26.63l1.56 3.89 5-2L61 24.63a13.42 13.42 0 0 0 5.77-8.51h27.36a13.42 13.42 0 0 0 5.77 8.51l-2.63 6.58 5 2 2.63-6.58a13.32 13.32 0 0 0 9.77-2l21.66 21.65a13.35 13.35 0 0 0-2 9.78l-20 8 2 5 20-8a13.46 13.46 0 0 0 8.52 5.77v27.33a13.42 13.42 0 0 0-8.52 5.77l-7.92-3.17-2 5 7.92 3.17a13.32 13.32 0 0 0 2 9.77L131 120l3.79 3.79 5.3-5.29a13.41 13.41 0 1 0 10.07-24.32V66.8a13.43 13.43 0 0 0 10.74-13.14zM53.63 21.48a8 8 0 1 1 8-8 8 8 0 0 1-8 8zm53.63 0a8 8 0 1 1 8-8 8.05 8.05 0 0 1-8 8zm48.27 85.81a8 8 0 1 1-8-8 8.06 8.06 0 0 1 8 8zm-8-45.58a8 8 0 1 1 8-8.05 8 8 0 0 1-8 8.05zm-91.22-5.37V118a5.38 5.38 0 0 0 5.37 5.36h29.49v5.37H61.68A10.74 10.74 0 0 1 51 118V56.34zM118 120.7V91.39a10.64 10.64 0 0 0-3.14-7.58l-4.9-4.9v19.23l4.57 4.58-3.79 3.79-14.43-14.43a3 3 0 0 0-2.13-.88 3 3 0 0 0-2.12 5.14l9 9.06a2.67 2.67 0 0 1 .34 3.38 14 14 0 0 0-.87 14l1 2.08a2.74 2.74 0 0 1 .28 1.19v2.69h-5.27v-2l-.76-1.52a19.39 19.39 0 0 1 .08-17.45l-7.6-7.6a8.37 8.37 0 0 1 11.84-11.88l4.48 4.49V45.62a5.38 5.38 0 0 0-5.36-5.37h-6.39l-1.94 3.88a2.68 2.68 0 0 1-2.4 1.49H72.4a2.7 2.7 0 0 1-2.4-1.49l-1.94-3.88h-6.38a5.39 5.39 0 0 0-5.37 5.37V51H51v-5.38a10.74 10.74 0 0 1 10.68-10.73h37.54A10.74 10.74 0 0 1 110 45.62v25.7l8.69 8.7a15.93 15.93 0 0 1 4.71 11.37v29.31zm-42.91-8h10.72v5.3H75.08zm11.52-33a8.71 8.71 0 0 0-12.3 0l-3.8-3.8a14.07 14.07 0 0 1 19.88 0zm8-6.74a20.07 20.07 0 0 0-28.39 0l-3.79-3.79a25.46 25.46 0 0 1 36 0zM83.13 88.52v5.37h-5.36v-5.37zm-16.13 0h5.4v5.37H67z" fill="#0071bc" data-name="Layer 2"/></svg>