<svg xmlns="http://www.w3.org/2000/svg" xmlns:xlink="http://www.w3.org/1999/xlink" viewBox="0 0 146.76 158"><defs><linearGradient id="a" x1="6.73" y1="43.18" x2="128.73" y2="43.18" gradientUnits="userSpaceOnUse"><stop offset="0" stop-color="#0071bc"/><stop offset="1" stop-color="#0059bc"/></linearGradient><linearGradient id="b" x1="44.72" y1="98.85" x2="104.15" y2="98.85" xlink:href="#a"/><linearGradient id="c" x1="0" y1="94" x2="146.76" y2="94" xlink:href="#a"/><linearGradient id="d" x1="57.93" y1="32.5" x2="119.23" y2="32.5" xlink:href="#a"/><linearGradient id="e" x1="57.93" y1="42" x2="119.23" y2="42" xlink:href="#a"/><linearGradient id="f" x1="57.93" y1="52" x2="100.55" y2="52" xlink:href="#a"/></defs><g data-name="Layer 2"><path d="M8.73 86.37a2.07 2.07 0 0 0 2-2.31V25.35c0-.44.48-.35.93-.35h112.12c.44 0 1-.09 1 .35v27.88a2 2 0 1 0 4 0V25.35a5.07 5.07 0 0 0-3-4.9v-5.06a5.08 5.08 0 0 0-3-4.91V5.42A5.22 5.22 0 0 0 117.55 0H17.89a5.2 5.2 0 0 0-5.16 5.42v5.06a5.08 5.08 0 0 0-3 4.91v5.06a5.07 5.07 0 0 0-3 4.9v58.71a2.07 2.07 0 0 0 2 2.31zm8-80.95c0-.44.71-.42 1.16-.42h99.66c.44 0 1.18 0 1.18.42V10h-102zm-3 10c0-.45.6-.39 1-.39h105.93c.44 0 1.07-.06 1.07.39V20h-108z" fill="url(#a)"/><path d="M95.45 77.84a29.73 29.73 0 1 0 8.7 21 29.54 29.54 0 0 0-8.7-21zm-3.27 38.76a25.1 25.1 0 1 1 7.35-17.75 24.92 24.92 0 0 1-7.35 17.75z" fill="url(#b)"/><path d="M146.11 153.9l-10.38-10.54v-28.31c0-1.28-1.34-2-2.61-2h-4.39V64a2 2 0 1 0-4 0v49h-13.12a40.07 40.07 0 0 0-9.23-42.08c-13.73-13.72-34.65-15.4-50.65-4.78V32.2a2 2 0 0 0-2.08-2.2H18.51c-1.28 0-2.78.93-2.78 2.2v38.62c0 1.28 1.5 2.18 2.78 2.18h25.7c-9.53 11-11.84 27-7 40H10.73V94.85a2.07 2.07 0 0 0-2-2.31 2.06 2.06 0 0 0-2 2.31V113H2.31a2.19 2.19 0 0 0-1.64.55 2.17 2.17 0 0 0-.67 1.58l.35 40.53A2.35 2.35 0 0 0 2.66 158H16.4a2.51 2.51 0 0 0 0-5H5l-.31-36h34.64a31.67 31.67 0 0 0 7 9.73A39.78 39.78 0 0 0 93 133.88l6.65 6.67a2.33 2.33 0 0 0 1.63.69 2.3 2.3 0 0 0 1.64-.68l1-1 4.66 4.66-1 1a2.19 2.19 0 0 0 0 3.16l4.73 4.61H27.19a2.51 2.51 0 0 0 0 5h90.72a2.41 2.41 0 0 0 1.63-4.06l-7-7.06 9.94-9.95 20.26 20.24a2.26 2.26 0 0 0 1.63.68 2.49 2.49 0 0 0 1.71-.68 2.31 2.31 0 0 0 .03-3.26zM20.73 69V35h27v34zm28.91 54.64a35.06 35.06 0 1 1 49.59 0 35.1 35.1 0 0 1-49.59 0zm51.66 12l-4.21-4.21a41.11 41.11 0 0 0 5.41-4.53 40.55 40.55 0 0 0 4.5-5.4l4.22 4.22zm10.57 5.36l-4.65-4.66 4.65-4.66 4.66 4.66zm18.86-2.21L124 132a2.29 2.29 0 0 0-3.25 0l-1 1-4.65-4.66 1-1a2.36 2.36 0 0 0 .68-1.64 2.32 2.32 0 0 0-.68-1.63l-6.65-6.83v-.26h21.19z" fill="url(#c)"/><path d="M116.92 30H60.24a2.51 2.51 0 0 0 0 5h56.68a2.51 2.51 0 0 0 0-5z" fill="url(#d)"/><path d="M119.23 42a2.06 2.06 0 0 0-2.31-2H60.24a2 2 0 1 0 0 4h56.68a2.06 2.06 0 0 0 2.31-2z" fill="url(#e)"/><path d="M60.24 50a2 2 0 1 0 0 4h38a2 2 0 1 0 0-4z" fill="url(#f)"/></g></svg>