<svg xmlns="http://www.w3.org/2000/svg" xmlns:xlink="http://www.w3.org/1999/xlink" viewBox="0 0 157.85 158"><defs><linearGradient id="a" x1="26.31" y1="89.44" x2="47.36" y2="89.44" gradientUnits="userSpaceOnUse"><stop offset="0" stop-color="#0071bc"/><stop offset="1" stop-color="#0059bc"/></linearGradient><linearGradient id="b" x1="53" y1="89.5" x2="58" y2="89.5" xlink:href="#a"/><linearGradient id="c" x1="63" y1="89.5" x2="129" y2="89.5" xlink:href="#a"/><linearGradient id="d" x1="26.31" y1="115.75" x2="47.36" y2="115.75" xlink:href="#a"/><linearGradient id="e" x1="53" y1="115.5" x2="58" y2="115.5" xlink:href="#a"/><linearGradient id="f" x1="63" y1="115.5" x2="129" y2="115.5" xlink:href="#a"/><linearGradient id="g" x1="26" y1="42" x2="79" y2="42" xlink:href="#a"/><linearGradient id="h" x1="0" y1="79" x2="157.85" y2="79" xlink:href="#a"/><linearGradient id="i" x1="84" y1="28.87" x2="97.34" y2="28.87" xlink:href="#a"/><linearGradient id="j" x1="81.56" y1="55.36" x2="95" y2="55.36" xlink:href="#a"/><linearGradient id="k" x1="101.72" y1="42.27" x2="129.61" y2="42.27" xlink:href="#a"/></defs><g data-name="Layer 2"><path d="M36.83 78.92a10.53 10.53 0 1 0 10.53 10.52 10.52 10.52 0 0 0-10.53-10.52zm0 15.79a5.27 5.27 0 1 1 5.26-5.27 5.28 5.28 0 0 1-5.26 5.27z" fill="url(#a)"/><path fill="url(#b)" d="M53 87h5v5h-5z"/><path fill="url(#c)" d="M63 87h66v5H63z"/><path d="M36.83 105.23a10.53 10.53 0 1 0 10.53 10.52 10.52 10.52 0 0 0-10.53-10.52zm0 15.78a5.26 5.26 0 1 1 5.26-5.26 5.27 5.27 0 0 1-5.26 5.25z" fill="url(#d)"/><path fill="url(#e)" d="M53 113h5v5h-5z"/><path fill="url(#f)" d="M63 113h66v5H63z"/><path d="M26 23.15V61a7.08 7.08 0 0 0 2.31 5 7.56 7.56 0 0 0 5.37 2h37.88c4.07 0 7.44-2.9 7.44-7V23.15A7.25 7.25 0 0 0 71.56 16H33.68C29.61 16 26 19.08 26 23.15zM50 21h5v17.37l-.65-.77a2.54 2.54 0 0 0-3.65 0l-.7.77zm-18 2.15C32 22 32.51 21 33.68 21H45v23.72a2.48 2.48 0 0 0 4.28 1.86l3.37-3.4 3.35 3.4a2.61 2.61 0 0 0 1.85.77 4 4 0 0 0 1.24-.2A2.87 2.87 0 0 0 61 44.72V21h10.56A2.45 2.45 0 0 1 74 23.15V61c0 1.16-1.28 2-2.44 2H33.68c-1.17 0-1.68-.81-1.68-2z" fill="url(#g)"/><path d="M139.44 0H28.94A13 13 0 0 0 16 13.15V137H2.63A2.61 2.61 0 0 0 0 139.61 18.41 18.41 0 0 0 18.42 158h118.39c1.45 0 2.19-1.33 2.19-2.78V21h16.22a2.62 2.62 0 0 0 2.63-2.61A18.41 18.41 0 0 0 139.44 0zm-121 153c-6.25 0-11.64-5-12.89-11h105.24a23 23 0 0 0 7.89 11zm115.56-.41c-8 0-18.33-6.41-18.33-13.06a2.47 2.47 0 0 0-2.54-2.53H21V13.15A8.16 8.16 0 0 1 28.94 5H134zM139 16V5.26A13.35 13.35 0 0 1 152.33 16z" fill="url(#h)"/><path d="M87.26 35.58l4.38 2.62L96.9 30c.05 0 .11.07.15 0a2.44 2.44 0 0 0-.13-2.6l-5.26-7.85-4.38 2.8L89.79 26H84v6h5.8z" fill="url(#i)"/><path d="M82 57l5.26 7.74 4.38-2.94L89.1 58H95v-5h-5.89l2.53-4-4.38-3L82 53.83a2.86 2.86 0 0 0-.13 2.83c.04.08.13.34.13.34z" fill="url(#j)"/><path d="M103.73 49a2.56 2.56 0 0 0 0 5H113v4a2.51 2.51 0 0 0 2.5 2.39A2.48 2.48 0 0 0 118 58v-4h9.6a2.56 2.56 0 0 0 0-5H118v-5h9.64a2.32 2.32 0 0 0 2-2.52 2.29 2.29 0 0 0-2-2.48h-7.23l7.23-11.46a1.74 1.74 0 0 0 .24-1 2.37 2.37 0 0 0-2.51-2.39 2.42 2.42 0 0 0-2.12 1.17L115.65 38l-7.56-12.62a2.56 2.56 0 0 0-4.67 1.28 1.38 1.38 0 0 0 .19.74l7.11 11.6h-7a2.29 2.29 0 0 0-2 2.48 2.32 2.32 0 0 0 2 2.52H113v5zM117 58z" fill="url(#k)"/></g></svg>