<svg xmlns="http://www.w3.org/2000/svg" viewBox="0 0 162.37 151.31"><defs><style>.cls-1{fill:#0071bc}</style></defs><g id="Layer_2" data-name="Layer 2"><g id="バック"><path class="cls-1" d="M152.48 65.2h-8.19a8.06 8.06 0 0 0-7.69-5.92h-8.74V37.91a2.25 2.25 0 0 0-1.1-2L65.1.31a2.27 2.27 0 0 0-2.28 0L1.14 35.92a2.29 2.29 0 0 0-1.14 2v71.22a2.3 2.3 0 0 0 1.15 2l61.68 35.61A2.23 2.23 0 0 0 64 147a2.34 2.34 0 0 0 1.18-.31L97.62 128v13.54a9.73 9.73 0 0 0 9.82 9.76h45a9.78 9.78 0 0 0 9.89-9.76V75.12a9.92 9.92 0 0 0-9.89-9.92zm-15.8-1.32a3.35 3.35 0 0 1 3.32 3.34v.23a3.35 3.35 0 0 1-3.34 3.34h-13.35a3.34 3.34 0 0 1-3.31-3.34v-.23a3.34 3.34 0 0 1 3.34-3.34zM64 5l25.61 14.75-57.08 33L6.91 37.91zm-2.19 135.8l-57.21-33V41.89l57.19 33zM64 70.86l-26.86-15.5 57.07-32.95 26.84 15.5zm33.64 4.26v47.58l-31.25 18.06V74.84l56.87-32.95v17.39h.07a8.08 8.08 0 0 0-7.7 5.92h-8.19a9.87 9.87 0 0 0-9.82 9.92zm60.15 66.43a5.21 5.21 0 0 1-5.29 5.16h-45a5.12 5.12 0 0 1-5.22-5.16V75.12a5.28 5.28 0 0 1 5.22-5.32h8.28a7.87 7.87 0 0 0 7.61 5.59h13.21a7.86 7.86 0 0 0 7.6-5.59h8.28a5.32 5.32 0 0 1 5.29 5.32z"/><path class="cls-1" d="M110.09 98.4h2.41a2.31 2.31 0 0 0 0-4.61h-.09v-6.24h6.35a2.21 2.21 0 0 0 2.18 1.55 2.31 2.31 0 0 0 2.32-2.29v-1.55a2.33 2.33 0 0 0-2.33-2.26h-10.84a2.29 2.29 0 0 0-1.62.68 2.26 2.26 0 0 0-.66 1.63V96.1a2.23 2.23 0 0 0 .66 1.62 2.29 2.29 0 0 0 1.62.68zm.02 21.03H121a2.3 2.3 0 0 0 2.31-2.3v-10.85A2.3 2.3 0 0 0 121 104h-10.89a2.3 2.3 0 0 0-2.3 2.3v10.85a2.3 2.3 0 0 0 2.3 2.3zm2.3-10.85h6.24v6.25h-6.24zm.09 27.29h-.09v-6.25h6.22a2.32 2.32 0 0 0 4.63 0v-2.21a2.41 2.41 0 0 0-2.33-2.39h-10.84a2.35 2.35 0 0 0-2.28 2.39v10.84a2.22 2.22 0 0 0 .67 1.59 2.24 2.24 0 0 0 1.61.63h2.41a2.3 2.3 0 1 0 0-4.6z"/><path class="cls-1" d="M126.23 85.77l-6.74 6.74-2-2.05a2.3 2.3 0 0 0-3.25 3.25l3.67 3.68a2.31 2.31 0 0 0 3.26 0l8.31-8.39a2.3 2.3 0 0 0-3.25-3.25zm0 42.48l-6.74 6.75-2-2.05a2.3 2.3 0 0 0-3.25 3.26l3.67 3.67a2.31 2.31 0 0 0 3.26 0l8.36-8.36a2.3 2.3 0 0 0-3.25-3.26zm23.6-39.71h-14.45a2.3 2.3 0 1 0 0 4.6h14.45a2.3 2.3 0 0 0 0-4.6zm0 21.03h-14.45a2.3 2.3 0 1 0 0 4.6h14.45a2.3 2.3 0 0 0 0-4.6zm0 21.04h-14.45a2.3 2.3 0 1 0 0 4.6h14.45a2.3 2.3 0 0 0 0-4.6z"/></g></g></svg>