<svg xmlns="http://www.w3.org/2000/svg" viewBox="0 0 157.91 157.91"><defs><style>.cls-1{fill:#0071bc}</style></defs><g id="Layer_2" data-name="Layer 2"><g id="バック"><path class="cls-1" d="M101.69 91l-3-3.09a4.08 4.08 0 0 0 .6-1.57h4.21c2.33 0 4.69-1.67 4.69-4v-6.75c0-2.32-2.36-4.28-4.69-4.28h-4.19c-.18 0-.38-1-.6-1.43l3-3a4.21 4.21 0 0 0 0-6l-4.76-4.75a4.22 4.22 0 0 0-6 0l-3.14 3a4.49 4.49 0 0 0-1.62-.61v-4.14a3.84 3.84 0 0 0-3.89-4.07h-6.71a4.25 4.25 0 0 0-4.38 4.07v4.21c0 .19-.9.39-1.38.61l-2.93-3a4.18 4.18 0 0 0-5.94 0L56.21 61a4.22 4.22 0 0 0 0 6l3 2.94c-.21.48-.41 1.43-.6 1.43h-4.23a4.24 4.24 0 0 0-4.17 4.28v6.73a4 4 0 0 0 4.17 4h4.21a4.22 4.22 0 0 0 .61 1.57l-3 3a4.26 4.26 0 0 0 0 6l4.8 4.72a4.22 4.22 0 0 0 6 0l2.89-3c.48.21 1.38.42 1.38.6v4.21c0 2.33 2.06 3.79 4.38 3.79h6.73a3.61 3.61 0 0 0 3.89-3.79v-4.17a4.34 4.34 0 0 0 1.62-.6l3.06 3a4.27 4.27 0 0 0 6 0l4.78-4.76a4.22 4.22 0 0 0-.04-5.95zM94 98.12l-2.89-2.89a4.23 4.23 0 0 0-4.78-.83 12.34 12.34 0 0 1-1.43.66 4.08 4.08 0 0 0-2.64 4v4.29h-6V99a4.3 4.3 0 0 0-2.89-4 15.59 15.59 0 0 1-1.64-.66 4.28 4.28 0 0 0-4.81.83L64 98.12 59.79 94l2.89-2.89a4.23 4.23 0 0 0 .83-4.78 11.64 11.64 0 0 1-.66-1.38 4 4 0 0 0-4-2.59h-3.64v-6h3.67a4.36 4.36 0 0 0 4-2.94 17 17 0 0 1 .66-1.67 4.26 4.26 0 0 0-.84-4.81L59.78 64 64 59.79l2.89 2.89a4.21 4.21 0 0 0 4.78.83 16.44 16.44 0 0 1 1.69-.66 4.31 4.31 0 0 0 2.89-4v-4.54h6v4.57a4.09 4.09 0 0 0 2.64 4c.54.19 1 .41 1.51.65a4.15 4.15 0 0 0 4.74-.83L94 59.78 98.13 64l-2.89 2.89a4.23 4.23 0 0 0-.84 4.78 17.31 17.31 0 0 1 .66 1.74 4.36 4.36 0 0 0 4 2.94h4.19v6H99a4 4 0 0 0-4 2.59 13.07 13.07 0 0 1-.66 1.48 4.15 4.15 0 0 0 .83 4.73L98.12 94z"/><path class="cls-1" d="M79 66.61A12.35 12.35 0 1 0 91.3 79 12.36 12.36 0 0 0 79 66.61zm0 20.06A7.72 7.72 0 1 1 86.67 79 7.73 7.73 0 0 1 79 86.67zM29.06 58.12A29.06 29.06 0 1 0 0 29.06a29.08 29.08 0 0 0 29.06 29.06zm0-4.63a24.06 24.06 0 0 1-15.48-5.31 7.77 7.77 0 0 1 8-7.87h15a7.77 7.77 0 0 1 8 7.87 24.1 24.1 0 0 1-15.52 5.31zm0-48.86a24.46 24.46 0 0 1 19.46 39.24 12.58 12.58 0 0 0-12-8.56h-15a12.57 12.57 0 0 0-12 8.56A24.46 24.46 0 0 1 29.06 4.63zm99.79 95.16a29.06 29.06 0 1 0 29.06 29.06 29.1 29.1 0 0 0-29.06-29.06zm-15.48 47.79a8.11 8.11 0 0 1 8-8.27h15a8 8 0 0 1 8 8.19 24.36 24.36 0 0 1-31 .08zm34.94-3.82a12.49 12.49 0 0 0-11.95-8.45h-15a12.48 12.48 0 0 0-12 8.45 24.43 24.43 0 1 1 38.92 0z"/><path class="cls-1" d="M37.05 28.06a11.31 11.31 0 1 0-16 0 11.3 11.3 0 0 0 16 0zM24.33 15.32c2.61-2.6 6.85-3 9.45 0 2.61 3 2.61 6.85 0 9.46a6.68 6.68 0 0 1-9.45-9.45zm-3.27 96.54a11.31 11.31 0 1 0 16 0 11.32 11.32 0 0 0-16 0zm12.72 12.72a6.68 6.68 0 1 1 0-9.45 6.7 6.7 0 0 1 0 9.45zm87.07-112.51a11.31 11.31 0 1 0 16 0 11.32 11.32 0 0 0-16 0zm12.72 12.72a6.68 6.68 0 1 1 0-9.45 6.7 6.7 0 0 1 0 9.45zm-12.72 87.07a11.31 11.31 0 1 0 16 0 11.32 11.32 0 0 0-16 0zm12.72 12.72a6.68 6.68 0 1 1 0-9.45 6.7 6.7 0 0 1 0 9.45zM64.4 31.31h29.11a2.51 2.51 0 0 0 0-5H64.4a2.51 2.51 0 0 0 0 5zm29.11 95H64.4a2.51 2.51 0 0 0 0 5h29.11a2.51 2.51 0 0 0 0-5zm-64.3-64.23a2.08 2.08 0 0 0-2 2.32v29.11a2 2 0 1 0 4 0V64.4a2.07 2.07 0 0 0-2-2.32zm97 2.32v29.11a2.51 2.51 0 0 0 5 0V64.4a2.51 2.51 0 0 0-5 0z"/><path class="cls-1" d="M128.85 58.12a29.1 29.1 0 0 0 28.41-22.94 2.32 2.32 0 1 0-4.53-1 24.36 24.36 0 0 1-4.43 9.65 12.55 12.55 0 0 0-11.94-8.55h-15a12.57 12.57 0 0 0-12 8.56 24.44 24.44 0 1 1 43.43-19.52 2.32 2.32 0 0 0 4.55-.89 29.06 29.06 0 1 0-28.52 34.66zm-7.51-17.81h15c4.39 0 7.85 3.09 7.85 7.49v.11a23.7 23.7 0 0 1-15.42 5.58 24 24 0 0 1-15.45-5.31 7.79 7.79 0 0 1 8.02-7.87zm-86.42 60.07a2.31 2.31 0 0 0-.93 4.53 24.52 24.52 0 0 1 19.5 23.94 24.81 24.81 0 0 1-5 14.91 12.49 12.49 0 0 0-12-8.45h-15a12.48 12.48 0 0 0-12 8.45A24.53 24.53 0 0 1 24.13 105a2.33 2.33 0 0 0-.93-4.56 29 29 0 1 0 11.72 0zm-21.34 47.2a8.11 8.11 0 0 1 8-8.27h15a8 8 0 0 1 8 8.19 24.36 24.36 0 0 1-31 .08z"/></g></g></svg>