<svg xmlns="http://www.w3.org/2000/svg" xmlns:xlink="http://www.w3.org/1999/xlink" viewBox="0 0 159.56 158.93"><defs><linearGradient id="a" x1="27.03" y1="131.84" x2="50.84" y2="131.84" gradientUnits="userSpaceOnUse"><stop offset="0" stop-color="#0071bc"/><stop offset="1" stop-color="#0059bc"/></linearGradient><linearGradient id="b" x1="0" y1="79.46" x2="159.56" y2="79.46" xlink:href="#a"/><linearGradient id="c" x1="11" y1="41.08" x2="67" y2="41.08" xlink:href="#a"/><linearGradient id="d" x1="11" y1="69.08" x2="26" y2="69.08" xlink:href="#a"/><linearGradient id="e" x1="31" y1="69.08" x2="46" y2="69.08" xlink:href="#a"/><linearGradient id="f" x1="52" y1="69.08" x2="67" y2="69.08" xlink:href="#a"/><linearGradient id="g" x1="11" y1="89.08" x2="26" y2="89.08" xlink:href="#a"/><linearGradient id="h" x1="31" y1="89.08" x2="46" y2="89.08" xlink:href="#a"/><linearGradient id="i" x1="52" y1="89.08" x2="67" y2="89.08" xlink:href="#a"/><linearGradient id="j" x1="120.03" y1="27.84" x2="143.84" y2="27.84" xlink:href="#a"/></defs><g data-name="Layer 2"><path d="M49.09 133.58a2 2 0 0 0 0-4h-6l6.07-9.91a2.23 2.23 0 0 0-3.86-2.21L38.92 128l-6.34-10.61a2.13 2.13 0 0 0-1.9-1 2.11 2.11 0 0 0-2.21 2.1 3.06 3.06 0 0 0 .25 1.14l5.9 9.91h-5.83a2 2 0 0 0 0 4H37v4h-8.18a2 2 0 0 0 0 4H37v3.56a2 2 0 0 0 2 2.11 2 2 0 0 0 2-2.11v-3.56h8.06a2 2 0 0 0 0-4H41v-4z" fill="url(#a)"/><path d="M155.77 124.66l-23.9-12.08H77V94.21L87.62 83.3a10.61 10.61 0 0 0 5.07 1.33 10.3 10.3 0 0 0 8.29-4.2l17.67 7.06a12.13 12.13 0 0 0-.22 2.27 12.87 12.87 0 0 0 25.74 0A12.61 12.61 0 0 0 134 77.2V56.29a28.45 28.45 0 0 0 25.56-28.08 28.17 28.17 0 1 0-56.33 0A27.85 27.85 0 0 0 129 56.29V77.2a11.74 11.74 0 0 0-8.28 5.52l-17.72-7a11 11 0 0 0 .09-1.29 10.27 10.27 0 0 0-20.54 0 10 10 0 0 0 1.36 5.38l-6.91 7v-58.6a12.33 12.33 0 0 0-12.42-12.63H13.29C6.22 15.58 0 21.14 0 28.21v87.2A13 13 0 0 0 10.63 128c-.09.92 0 1.86 0 2.81a28.23 28.23 0 0 0 28.27 28.13 29.24 29.24 0 0 0 21.8-10.35h71.19l23.9-11.86a6.76 6.76 0 0 0 0-12.06zm-47.59-96.45a23.09 23.09 0 1 1 23.09 23.08 23.12 23.12 0 0 1-23.09-23.08zm23.09 53.86a7.7 7.7 0 1 1-7.7 7.69 7.7 7.7 0 0 1 7.7-7.69zM92.8 69.25a5.13 5.13 0 1 1-5.13 5.13 5.14 5.14 0 0 1 5.13-5.13zm33.67 48.33l-3.42 5.5 3.42 5.5H67a35.53 35.53 0 0 0-3-11zm-65.79-5a1.34 1.34 0 0 1-.65-.43L72 99.58v13zM12.06 123A7.53 7.53 0 0 1 6 115.41v-87.2a7.32 7.32 0 0 1 7.29-7.63h51.29A7.42 7.42 0 0 1 72 28.21v64l-15.68 16.52a27.92 27.92 0 0 0-30.6-2.86 5.09 5.09 0 0 0-4.72-3.29h-5.14a4.92 4.92 0 0 0-4.86 5.14v5.13a5.09 5.09 0 0 0 3.25 4.77 27.48 27.48 0 0 0-2.19 5.38zM21 107.58v1.47a43.86 43.86 0 0 1-3.81 3.53H16v-5zm17.94 46.3A23.08 23.08 0 1 1 62 130.8a23.1 23.1 0 0 1-23.06 23.08zm87.54-10.3H64a30 30 0 0 0 3-10h59.46l-3.43 5zm27-11.36l-21.32 10.66-2.93-4.39 5.13-7.7-5.13-7.69 2.92-4.38 21.33 10.66a1.59 1.59 0 0 1 0 2.84z" fill="url(#b)"/><path d="M16.13 56.58h45.74A5.13 5.13 0 0 0 67 51.46V30.71a5.13 5.13 0 0 0-5.13-5.13H16.13A5.13 5.13 0 0 0 11 30.71v20.75a5.13 5.13 0 0 0 5.13 5.12zm-.13-26h46v21H16z" fill="url(#c)"/><path d="M16.13 76.58h4.74A5.13 5.13 0 0 0 26 71.46v-4.75a5.13 5.13 0 0 0-5.13-5.13h-4.74A5.13 5.13 0 0 0 11 66.71v4.75a5.13 5.13 0 0 0 5.13 5.12zm-.13-10h5v5h-5z" fill="url(#d)"/><path d="M40.87 61.58h-4.74A5.13 5.13 0 0 0 31 66.71v4.75a5.13 5.13 0 0 0 5.13 5.12h4.74A5.13 5.13 0 0 0 46 71.46v-4.75a5.13 5.13 0 0 0-5.13-5.13zm-4.87 10v-5h5.5v5z" fill="url(#e)"/><path d="M61.87 61.58h-4.74A5.13 5.13 0 0 0 52 66.71v4.75a5.13 5.13 0 0 0 5.13 5.12h4.74A5.13 5.13 0 0 0 67 71.46v-4.75a5.13 5.13 0 0 0-5.13-5.13zm-4.87 10v-5h5v5z" fill="url(#f)"/><path d="M16.13 96.58h4.74A5.13 5.13 0 0 0 26 91.46v-4.75a5.13 5.13 0 0 0-5.13-5.13h-4.74A5.13 5.13 0 0 0 11 86.71v4.75a5.13 5.13 0 0 0 5.13 5.12zm-.13-9h5v5h-5z" fill="url(#g)"/><path d="M40.87 81.58h-4.74A5.13 5.13 0 0 0 31 86.71v4.75a5.13 5.13 0 0 0 5.13 5.12h4.74A5.13 5.13 0 0 0 46 91.46v-4.75a5.13 5.13 0 0 0-5.13-5.13zm-4.87 11v-5h5.5v5z" fill="url(#h)"/><path d="M61.87 81.58h-4.74A5.13 5.13 0 0 0 52 86.71v4.75a5.13 5.13 0 0 0 5.13 5.12h4.74A5.13 5.13 0 0 0 67 91.46v-4.75a5.13 5.13 0 0 0-5.13-5.13zm-4.87 11v-5h5v5z" fill="url(#i)"/><path d="M134 41.14v-3.56h8.06a2 2 0 0 0 0-4H134v-4h8.09a1.82 1.82 0 0 0 1.75-2 1.83 1.83 0 0 0-1.75-2h-6l6.07-9.91a2.23 2.23 0 0 0-2-3.2 2.11 2.11 0 0 0-1.87 1L131.92 24l-6.34-10.61a2.13 2.13 0 0 0-1.9-1 2.11 2.11 0 0 0-2.21 2.1 3.06 3.06 0 0 0 .25 1.14l5.9 9.91h-5.83a1.84 1.84 0 0 0-1.76 2 1.82 1.82 0 0 0 1.76 2H130v4h-8.18a2 2 0 0 0 0 4H130v3.56a2 2 0 0 0 2 2.11 2 2 0 0 0 2-2.07z" fill="url(#j)"/></g></svg>